<svg xmlns="http://www.w3.org/2000/svg" width="111" height="85" fill="none" viewBox="0 0 111 85"><rect width="111" height="85" fill="url(#paint0_linear)" rx="10"/><path fill="#fff" d="M59.875 20.6591L61 20.9716C63.6458 21.3674 64.9688 22.1591 64.9688 23.3466C64.9688 23.6799 64.8438 23.9612 64.5938 24.1903C61.7812 26.7112 58.0417 29.4299 53.375 32.3466C46.25 36.7841 38.1667 41.0758 29.125 45.2216C32.0833 46.9091 36.0938 49.7112 41.1562 53.6278C47.9479 58.6487 52.125 61.1591 53.6875 61.1591C54.2292 61.1591 54.6875 61.0133 55.0625 60.7216C55.4583 60.4091 55.6771 60.2528 55.7188 60.2528C56.0729 60.2528 56.25 60.4195 56.25 60.7528C56.25 61.0445 55.8958 61.8778 55.1875 63.2528C54.5 64.6278 53.9062 65.5341 53.4062 65.9716C52.9271 66.4091 52.1562 66.6278 51.0938 66.6278C50.0312 66.6278 48.6146 66.107 46.8438 65.0653C45.0729 64.0237 43.1354 62.7216 41.0312 61.1591C38.9479 59.5758 36.8646 57.9716 34.7812 56.3466C29.5104 52.2841 25.9583 49.8778 24.125 49.1278C17.7083 59.2528 14.4062 64.4924 14.2188 64.8466C14.0521 65.2008 13.8229 65.4924 13.5312 65.7216C13.2604 65.9299 13.0833 66.0341 13 66.0341L11.6562 66.2216L10.5625 66.1591C10.2708 66.1591 10.0625 66.2008 9.9375 66.2841C9.8125 66.3883 9.67708 66.4612 9.53125 66.5028C9.38542 66.5445 9.26042 66.607 9.15625 66.6903C9.05208 66.7945 8.88542 66.8466 8.65625 66.8466C8.44792 66.8466 8.14583 66.6695 7.75 66.3153C7.375 65.982 7.1875 65.6903 7.1875 65.4403C7.1875 65.1903 7.33333 64.7528 7.625 64.1278C7.9375 63.5028 11.7812 57.7008 19.1562 46.7216H18.5625C17.1667 46.7216 16.4688 46.3466 16.4688 45.5966C16.4688 44.8258 16.8125 44.0653 17.5 43.3153C18.2083 42.5445 18.9167 42.1591 19.625 42.1591C20.3333 42.1591 21.1146 42.2216 21.9688 42.3466C25.9062 36.5341 28.9375 31.9716 31.0625 28.6591C28.6458 30.9299 26.3542 32.0653 24.1875 32.0653C23.1458 32.0653 22.3229 31.7112 21.7188 31.0028C21.1146 30.2737 20.8125 29.4508 20.8125 28.5341C20.8125 27.6174 21.0417 26.8674 21.5 26.2841C21.9792 25.7008 22.4375 25.2945 22.875 25.0653C23.3125 24.8362 23.6146 24.7216 23.7812 24.7216C23.9479 24.7216 24.0312 24.8049 24.0312 24.9716L23.7812 25.7216C23.7812 26.0133 24.2292 26.1591 25.125 26.1591C26.0208 26.1591 27.2708 25.6695 28.875 24.6903C30.4792 23.6903 32.0521 22.7008 33.5938 21.7216C35.1354 20.7216 36.2917 20.2216 37.0625 20.2216C37.8333 20.2216 38.3333 20.3153 38.5625 20.5028C38.8125 20.6695 39.0312 20.7841 39.2188 20.8466C39.4271 20.8883 39.5938 20.9612 39.7188 21.0653C39.8438 21.1695 39.9479 21.3049 40.0312 21.4716C40.1146 21.6174 40.2708 21.7841 40.5 21.9716C40.7292 22.1591 40.8438 22.4091 40.8438 22.7216C40.8438 23.0341 40.7604 23.3258 40.5938 23.5966C37.9479 27.5966 34.6979 32.6383 30.8438 38.7216C36.0104 36.0341 41.9167 32.5966 48.5625 28.4091C55.2083 24.2008 58.8021 21.7216 59.3438 20.9716C59.4688 20.7633 59.6458 20.6591 59.875 20.6591ZM72.2188 33.8153C72.5312 33.8153 72.6875 33.9924 72.6875 34.3466C72.6875 34.4716 72.6354 34.5862 72.5312 34.6903C70.7812 36.4403 68.7604 37.3153 66.4688 37.3153C65.9271 37.3153 65.3229 37.0133 64.6562 36.4091C63.9896 35.7841 63.6562 34.8883 63.6562 33.7216C63.6562 32.5549 64.3646 31.2633 65.7812 29.8466C67.1979 28.4091 69.1667 27.0549 71.6875 25.7841C74.2292 24.4924 77.3958 23.3466 81.1875 22.3466C84.9792 21.3466 88.3854 20.8466 91.4062 20.8466C94.4271 20.8466 96.9062 21.0966 98.8438 21.5966C100.781 22.0758 102.292 22.6799 103.375 23.4091C104.479 24.1174 105.385 24.9195 106.094 25.8153C107.281 27.3153 107.875 28.8466 107.875 30.4091C107.875 31.9508 107.375 33.5445 106.375 35.1903C105.375 36.8362 104.073 38.3049 102.469 39.5966C100.885 40.8674 99.0625 42.0549 97 43.1591C93.1458 45.2008 89.0208 46.7008 84.625 47.6591C85.375 48.4299 86.9583 50.3674 89.375 53.4716C91.8125 56.5549 94.0312 59.1383 96.0312 61.2216C98.0521 63.3049 99.6146 64.3466 100.719 64.3466L101.75 63.9716C101.979 63.9716 102.094 64.0653 102.094 64.2528C102.094 64.4195 101.708 64.9299 100.938 65.7841C100.188 66.6174 99.5312 67.2528 98.9688 67.6903C98.4062 68.1278 97.6354 68.3466 96.6562 68.3466C95.6979 68.3466 94.6042 67.8778 93.375 66.9403C92.1458 66.0028 90.8021 64.6799 89.3438 62.9716C87.8854 61.2633 86.5729 59.6591 85.4062 58.1591C84.2396 56.6383 82.9062 54.857 81.4062 52.8153C79.9062 50.7528 78.875 49.357 78.3125 48.6278C78.1042 48.9612 77.5729 49.7945 76.7188 51.1278C75.8646 52.4403 75.2396 53.4091 74.8438 54.0341C74.4479 54.6591 73.875 55.5758 73.125 56.7841C72.375 57.9716 71.7917 58.9299 71.375 59.6591C70.2292 61.5966 69.4271 63.0445 68.9688 64.0028C68.5312 64.9612 67.8021 65.4403 66.7812 65.4403L65.6875 65.4091L64.75 65.4403C63.4583 65.4403 62.8125 64.8987 62.8125 63.8153C62.8125 63.0028 63.1562 61.8466 63.8438 60.3466C64.5521 58.8258 68.2604 53.1903 74.9688 43.4403C81.6771 33.6695 85.375 28.4612 86.0625 27.8153C86.75 27.1487 87.2604 26.7737 87.5938 26.6903C87.8438 26.5028 88.0104 26.4091 88.0938 26.4091L88.6562 26.5028L89.1875 26.4091C89.375 26.4091 89.5417 26.4924 89.6875 26.6591C89.8333 26.8049 89.9375 26.8987 90 26.9403C90.875 27.5862 91.3125 28.1278 91.3125 28.5653C91.3125 29.0028 91.1979 29.4299 90.9688 29.8466C90.7604 30.2424 90.1667 31.1487 89.1875 32.5653C88.2083 33.982 86.9167 35.8258 85.3125 38.0966C83.7292 40.3466 82.5833 41.982 81.875 43.0028C83.5833 42.9195 85.6354 42.3987 88.0312 41.4403C90.4271 40.482 92.6667 39.3362 94.75 38.0028C96.8542 36.6487 98.6458 35.1903 100.125 33.6278C101.625 32.0445 102.375 30.6695 102.375 29.5028C102.375 28.8778 102.052 28.3153 101.406 27.8153C100.76 27.2945 99.9479 26.8883 98.9688 26.5966C97.0104 26.0133 94.8021 25.7216 92.3438 25.7216C89.8854 25.7216 86.7708 26.2528 83 27.3153C79.2292 28.3778 76.4792 29.3987 74.75 30.3778C73.0208 31.3362 71.7708 32.1591 71 32.8466C70.2292 33.5133 69.8438 33.982 69.8438 34.2528C69.8438 34.3987 70.0521 34.4716 70.4688 34.4716C70.9062 34.4716 71.2917 34.3674 71.625 34.1591C71.9583 33.9299 72.1562 33.8153 72.2188 33.8153Z"/><path fill="#000" d="M59.875 20.6591L60.1426 19.6956L60.0113 19.6591H59.875V20.6591ZM61 20.9716L60.7324 21.9351L60.7914 21.9515L60.852 21.9606L61 20.9716ZM64.5938 24.1903L65.2612 24.935L65.2695 24.9275L64.5938 24.1903ZM53.375 32.3466L53.9037 33.1954L53.905 33.1946L53.375 32.3466ZM29.125 45.2216L28.7082 44.3126L26.937 45.1247L28.6295 46.0902L29.125 45.2216ZM41.1562 53.6278L40.5443 54.4188L40.553 54.4255L40.5618 54.432L41.1562 53.6278ZM55.0625 60.7216L55.6765 61.511L55.6821 61.5065L55.0625 60.7216ZM55.1875 63.2528L54.2985 62.7948L54.2931 62.8056L55.1875 63.2528ZM53.4062 65.9716L52.7477 65.219L52.7398 65.226L52.732 65.2331L53.4062 65.9716ZM41.0312 61.1591L40.4261 61.9553L40.4351 61.9619L41.0312 61.1591ZM34.7812 56.3466L35.3963 55.5581L35.3917 55.5545L34.7812 56.3466ZM24.125 49.1278L24.5036 48.2023L23.7286 47.8852L23.2803 48.5925L24.125 49.1278ZM14.2188 64.8466L13.335 64.3787L13.324 64.3995L13.3139 64.4208L14.2188 64.8466ZM13.5312 65.7216L14.141 66.5143L14.1491 66.5079L13.5312 65.7216ZM13 66.0341V65.0341H12.9306L12.8618 65.0437L13 66.0341ZM11.6562 66.2216L11.5992 67.22L11.6972 67.2256L11.7944 67.212L11.6562 66.2216ZM10.5625 66.1591L10.6195 65.1607L10.591 65.1591H10.5625V66.1591ZM9.9375 66.2841L9.3828 65.452L9.33835 65.4817L9.29732 65.5159L9.9375 66.2841ZM9.15625 66.6903L8.53155 65.9095L8.48831 65.9441L8.44914 65.9832L9.15625 66.6903ZM7.75 66.3153L8.4168 65.5701L8.41436 65.5679L7.75 66.3153ZM7.625 64.1278L6.73057 63.6806L6.72453 63.6927L6.71882 63.705L7.625 64.1278ZM19.1562 46.7216L19.9864 47.2792L21.0326 45.7216H19.1562V46.7216ZM17.5 43.3153L16.7637 42.6387L16.7628 42.6396L17.5 43.3153ZM21.9688 42.3466L21.824 43.336L22.4448 43.4269L22.7967 42.9074L21.9688 42.3466ZM31.0625 28.6591L31.9042 29.199L30.3777 27.9303L31.0625 28.6591ZM21.7188 31.0028L20.9487 31.6409L20.9533 31.6464L20.9579 31.6518L21.7188 31.0028ZM21.5 26.2841L20.7273 25.6493L20.7204 25.6577L20.7137 25.6663L21.5 26.2841ZM24.0312 24.9716L24.9799 25.2878L25.0312 25.1339V24.9716H24.0312ZM23.7812 25.7216L22.8326 25.4054L22.7812 25.5593V25.7216H23.7812ZM28.875 24.6903L29.396 25.5439L29.404 25.539L28.875 24.6903ZM33.5938 21.7216L34.1299 22.5658L34.1379 22.5605L33.5938 21.7216ZM38.5625 20.5028L37.9293 21.2768L37.9671 21.3078L38.0078 21.3349L38.5625 20.5028ZM39.2188 20.8466L38.9025 21.7953L38.9616 21.815L39.0226 21.8272L39.2188 20.8466ZM40.0312 21.4716L39.1368 21.9188L39.1492 21.9436L39.163 21.9677L40.0312 21.4716ZM40.5938 23.5966L41.4278 24.1483L41.4368 24.1346L41.4454 24.1207L40.5938 23.5966ZM30.8438 38.7216L29.999 38.1864L28.0129 41.3213L31.3052 39.6087L30.8438 38.7216ZM48.5625 28.4091L49.0956 29.2551L49.0975 29.2539L48.5625 28.4091ZM59.3438 20.9716L60.1544 21.5571L60.1793 21.5226L60.2012 21.4861L59.3438 20.9716ZM59.6074 21.6226L60.7324 21.9351L61.2676 20.0081L60.1426 19.6956L59.6074 21.6226ZM60.852 21.9606C62.1267 22.1513 62.9674 22.4237 63.4631 22.7203C63.9255 22.997 63.9688 23.2097 63.9688 23.3466H65.9688C65.9688 22.296 65.3505 21.519 64.4901 21.0041C63.6628 20.5091 62.5191 20.1877 61.148 19.9826L60.852 21.9606ZM63.9688 23.3466C63.9688 23.3851 63.9623 23.3989 63.9612 23.4014C63.9599 23.4042 63.9522 23.4219 63.918 23.4532L65.2695 24.9275C65.722 24.5127 65.9688 23.9657 65.9688 23.3466H63.9688ZM63.9263 23.4457C61.1711 25.9152 57.4829 28.5999 52.845 31.4986L53.905 33.1946C58.6005 30.2599 62.3914 27.5072 65.2612 24.935L63.9263 23.4457ZM52.8463 31.4978C45.7632 35.9092 37.7182 40.1813 28.7082 44.3126L29.5418 46.1306C38.6152 41.9702 46.7368 37.659 53.9037 33.1954L52.8463 31.4978ZM28.6295 46.0902C31.5262 47.7425 35.4927 50.5105 40.5443 54.4188L41.7682 52.8369C36.6948 48.9119 32.6405 46.0756 29.6205 44.353L28.6295 46.0902ZM40.5618 54.432C43.9676 56.9498 46.7392 58.8542 48.8677 60.1334C49.931 60.7724 50.8525 61.2669 51.6247 61.6046C52.3669 61.9292 53.0798 62.1591 53.6875 62.1591V60.1591C53.514 60.1591 53.1188 60.0752 52.4261 59.7722C51.7633 59.4823 50.9232 59.0353 49.8979 58.4192C47.8494 57.188 45.1365 55.3267 41.7507 52.8237L40.5618 54.432ZM53.6875 62.1591C54.4188 62.1591 55.1017 61.9579 55.6764 61.5109L54.4486 59.9322C54.2733 60.0686 54.0395 60.1591 53.6875 60.1591V62.1591ZM55.6821 61.5065C55.8763 61.3532 56.0151 61.2478 56.1047 61.1838C56.1514 61.1504 56.17 61.1389 56.1688 61.1396C56.1672 61.1406 56.1618 61.1438 56.1533 61.1484C56.1452 61.1528 56.1298 61.1609 56.1086 61.1705C56.0894 61.1793 56.0519 61.1955 56.0016 61.2109C55.9756 61.2188 55.9398 61.2285 55.8964 61.2366C55.8541 61.2444 55.793 61.2528 55.7188 61.2528V59.2528C55.4787 59.2528 55.2977 59.3422 55.281 59.3498C55.2215 59.3769 55.1716 59.4056 55.1398 59.4246C55.0735 59.4644 55.0048 59.5116 54.9422 59.5563C54.8131 59.6485 54.6445 59.7775 54.4429 59.9367L55.6821 61.5065ZM55.7188 61.2528C55.7563 61.2528 55.5984 61.2628 55.4318 61.106C55.2538 60.9385 55.25 60.7563 55.25 60.7528H57.25C57.25 60.416 57.1576 59.9838 56.8026 59.6496C56.4589 59.3262 56.0354 59.2528 55.7188 59.2528V61.2528ZM55.25 60.7528C55.25 60.6657 55.268 60.6513 55.2297 60.7729C55.1988 60.871 55.1459 61.0129 55.064 61.2054C54.901 61.5892 54.6481 62.1163 54.2985 62.7949L56.0765 63.7108C56.4352 63.0144 56.7136 62.4374 56.9047 61.9877C57 61.7636 57.0798 61.5565 57.1374 61.3734C57.1877 61.2137 57.25 60.9858 57.25 60.7528H55.25ZM54.2931 62.8056C53.6071 64.1777 53.0863 64.9228 52.7477 65.219L54.0648 66.7242C54.7262 66.1454 55.3929 65.078 56.0819 63.7001L54.2931 62.8056ZM52.732 65.2331C52.5238 65.4232 52.0563 65.6278 51.0938 65.6278V67.6278C52.2562 67.6278 53.3304 67.395 54.0805 66.7101L52.732 65.2331ZM51.0938 65.6278C50.3099 65.6278 49.0871 65.2248 47.3508 64.2034L46.3367 65.9273C48.1421 66.9892 49.7526 67.6278 51.0938 67.6278V65.6278ZM47.3508 64.2034C45.6177 63.184 43.7103 61.9029 41.6274 60.3562L40.4351 61.9619C42.5605 63.5402 44.5281 64.8634 46.3367 65.9273L47.3508 64.2034ZM41.6363 60.3629C39.5564 58.7822 37.4763 57.1805 35.3963 55.5581L34.1662 57.1351C36.2528 58.7626 38.3395 60.3694 40.4262 61.9552L41.6363 60.3629ZM35.3917 55.5545C32.7479 53.5168 30.5244 51.8861 28.7249 50.6671C26.9419 49.4593 25.523 48.6193 24.5036 48.2023L23.7464 50.0534C24.5604 50.3864 25.8341 51.1245 27.6032 52.3229C29.3558 53.5102 31.5438 55.1139 34.1708 57.1386L35.3917 55.5545ZM23.2803 48.5925C20.0719 53.6552 17.6417 57.4972 15.9899 60.1181C14.3594 62.7053 13.4521 64.1575 13.335 64.3787L15.1025 65.3145C15.1003 65.3187 15.1111 65.299 15.1487 65.2361C15.182 65.1804 15.228 65.1046 15.2875 65.0075C15.4063 64.8138 15.5742 64.5431 15.7918 64.1942C16.2268 63.497 16.8567 62.494 17.6819 61.1844C19.3323 58.5657 21.7614 54.7255 24.9697 49.6631L23.2803 48.5925ZM13.3139 64.4208C13.2098 64.6421 13.0759 64.8076 12.9134 64.9353L14.1491 66.5079C14.5699 66.1772 14.8944 65.7594 15.1236 65.2724L13.3139 64.4208ZM12.9215 64.929C12.8632 64.9738 12.8141 65.0099 12.7735 65.0382C12.7323 65.0669 12.7045 65.0845 12.6883 65.094C12.6806 65.0986 12.678 65.0998 12.6801 65.0988C12.6818 65.0979 12.6917 65.0929 12.7087 65.0861C12.7249 65.0796 12.7558 65.0681 12.7987 65.0577C12.8399 65.0476 12.9099 65.0341 13 65.0341V67.0341C13.2061 67.0341 13.3704 66.9755 13.4515 66.943C13.5469 66.9049 13.6326 66.8589 13.7023 66.8179C13.8421 66.7357 13.9912 66.6294 14.141 66.5142L12.9215 64.929ZM12.8618 65.0437L11.5181 65.2312L11.7944 67.212L13.1382 67.0245L12.8618 65.0437ZM11.7133 65.2232L10.6195 65.1607L10.5055 67.1575L11.5992 67.22L11.7133 65.2232ZM10.5625 65.1591C10.2292 65.1591 9.76602 65.1966 9.3828 65.452L10.4922 67.1161C10.4494 67.1447 10.4152 67.1593 10.398 67.1657C10.3807 67.1722 10.3745 67.1727 10.3836 67.1709C10.3924 67.1692 10.4113 67.166 10.4424 67.1634C10.4733 67.1609 10.513 67.1591 10.5625 67.1591V65.1591ZM9.29732 65.5159C9.27143 65.5374 9.25885 65.5406 9.25653 65.5413L9.80597 67.4644C10.0953 67.3817 10.3536 67.2391 10.5777 67.0523L9.29732 65.5159ZM9.25653 65.5413C9.00059 65.6144 8.75248 65.7327 8.53155 65.9095L9.78095 67.4712C9.77548 67.4756 9.77284 67.4766 9.77534 67.4754C9.77808 67.474 9.78751 67.4696 9.80597 67.4644L9.25653 65.5413ZM8.44914 65.9832C8.53074 65.9016 8.61242 65.8663 8.65485 65.853C8.69281 65.8412 8.69936 65.8466 8.65625 65.8466V67.8466C9.00715 67.8466 9.49005 67.7708 9.86336 67.3974L8.44914 65.9832ZM8.65625 65.8466C8.74327 65.8466 8.79818 65.8645 8.81019 65.8686C8.82329 65.8732 8.81382 65.8714 8.77916 65.8511C8.70692 65.8087 8.58771 65.723 8.41679 65.5701L7.08321 67.0606C7.30812 67.2618 7.53787 67.4417 7.76772 67.5765C7.97975 67.7008 8.29132 67.8466 8.65625 67.8466V65.8466ZM8.41436 65.5679C8.26742 65.4373 8.19722 65.3493 8.1693 65.3058C8.14061 65.2612 8.1875 65.3129 8.1875 65.4403H6.1875C6.1875 66.1571 6.68665 66.7081 7.08564 67.0627L8.41436 65.5679ZM8.1875 65.4403C8.1875 65.4782 8.18302 65.4286 8.24556 65.2409C8.30202 65.0716 8.39446 64.8437 8.53118 64.5507L6.71882 63.705C6.56387 64.037 6.43756 64.3404 6.34819 64.6085C6.2649 64.8584 6.1875 65.1525 6.1875 65.4403H8.1875ZM8.51943 64.5751C8.51916 64.5756 8.52379 64.5665 8.53636 64.5441C8.54823 64.523 8.56431 64.4951 8.58525 64.4598C8.62723 64.389 8.68393 64.296 8.75655 64.1794C8.90162 63.9465 9.10273 63.6311 9.3612 63.2314C9.87774 62.4327 10.6156 61.3093 11.5758 59.8598C13.4959 56.9615 16.2992 52.7683 19.9864 47.2792L18.3261 46.164C14.6383 51.6541 11.8322 55.8515 9.90853 58.7552C8.94691 60.2068 8.2043 61.3373 7.68177 62.1454C7.17948 62.9221 6.84007 63.4616 6.73057 63.6806L8.51943 64.5751ZM19.1562 45.7216H18.5625V47.7216H19.1562V45.7216ZM18.5625 45.7216C17.9215 45.7216 17.5966 45.6299 17.4655 45.5594C17.4149 45.5322 17.4276 45.5266 17.4494 45.5616C17.4729 45.5996 17.4688 45.6232 17.4688 45.5966H15.4688C15.4688 45.945 15.5518 46.2967 15.7498 46.6159C15.9461 46.9322 16.2205 47.1609 16.5189 47.3212C17.0857 47.6258 17.8077 47.7216 18.5625 47.7216V45.7216ZM17.4688 45.5966C17.4688 45.1473 17.6634 44.617 18.2372 43.9911L16.7628 42.6396C15.9616 43.5137 15.4688 44.5042 15.4688 45.5966H17.4688ZM18.2363 43.992C18.8465 43.328 19.3076 43.1591 19.625 43.1591V41.1591C18.5257 41.1591 17.5702 41.761 16.7637 42.6387L18.2363 43.992ZM19.625 43.1591C20.2758 43.1591 21.0078 43.2166 21.824 43.336L22.1135 41.3571C21.2214 41.2266 20.3909 41.1591 19.625 41.1591V43.1591ZM22.7967 42.9074C26.7358 37.0925 29.7725 32.522 31.9042 29.199L30.2208 28.1191C28.1025 31.4212 25.0767 35.9757 21.1408 41.7857L22.7967 42.9074ZM30.3777 27.9303C28.0509 30.1167 25.9934 31.0653 24.1875 31.0653V33.0653C26.7149 33.0653 29.2407 31.7431 31.7473 29.3878L30.3777 27.9303ZM24.1875 31.0653C23.3995 31.0653 22.8698 30.8114 22.4796 30.3539L20.9579 31.6518C21.776 32.611 22.8921 33.0653 24.1875 33.0653V31.0653ZM22.4888 30.3648C22.0279 29.8086 21.8125 29.2096 21.8125 28.5341H19.8125C19.8125 29.692 20.2013 30.7387 20.9487 31.6409L22.4888 30.3648ZM21.8125 28.5341C21.8125 27.7874 21.9965 27.2708 22.2863 26.9019L20.7137 25.6663C20.0868 26.4641 19.8125 27.4475 19.8125 28.5341H21.8125ZM22.2727 26.9188C22.7073 26.3898 23.066 26.0942 23.339 25.9512L22.411 24.1795C21.809 24.4948 21.251 25.0117 20.7273 25.6493L22.2727 26.9188ZM23.339 25.9512C23.5387 25.8466 23.6847 25.7803 23.7843 25.7425C23.8335 25.7239 23.8602 25.7164 23.8683 25.7145C23.8805 25.7115 23.8465 25.7216 23.7812 25.7216V23.7216C23.5102 23.7216 23.2535 23.8048 23.075 23.8725C22.8725 23.9493 22.6488 24.055 22.411 24.1795L23.339 25.9512ZM23.7812 25.7216C23.7104 25.7216 23.4737 25.7032 23.2616 25.4912C23.0496 25.2792 23.0312 25.0424 23.0312 24.9716H25.0312C25.0312 24.7341 24.9712 24.3723 24.6759 24.077C24.3805 23.7816 24.0187 23.7216 23.7812 23.7216V25.7216ZM23.0826 24.6554L22.8326 25.4054L24.7299 26.0378L24.9799 25.2878L23.0826 24.6554ZM22.7812 25.7216C22.7812 26.5454 23.4665 26.8895 23.8076 27.0006C24.1849 27.1234 24.6488 27.1591 25.125 27.1591V25.1591C24.9263 25.1591 24.7678 25.1509 24.645 25.1376C24.5187 25.1239 24.4517 25.107 24.4268 25.0988C24.3935 25.088 24.4687 25.1045 24.564 25.1976C24.6165 25.2489 24.6744 25.3231 24.718 25.4223C24.7621 25.523 24.7812 25.6263 24.7812 25.7216H22.7812ZM25.125 27.1591C26.3177 27.1591 27.7728 26.5347 29.396 25.5439L28.354 23.8368C26.7688 24.8043 25.724 25.1591 25.125 25.1591V27.1591ZM29.404 25.539C31.0105 24.5375 32.5858 23.5464 34.1299 22.5657L33.0576 20.8775C31.5184 21.8551 29.9479 22.8432 28.346 23.8417L29.404 25.539ZM34.1379 22.5605C34.8812 22.0785 35.5046 21.7348 36.0141 21.5144C36.5366 21.2885 36.8732 21.2216 37.0625 21.2216V19.2216C36.4809 19.2216 35.854 19.4047 35.2203 19.6787C34.5735 19.9584 33.848 20.3647 33.0496 20.8826L34.1379 22.5605ZM37.0625 21.2216C37.4142 21.2216 37.6646 21.2435 37.8313 21.2748C38.0197 21.3101 38.0067 21.3402 37.9293 21.2768L39.1957 19.7289C38.8891 19.478 38.5116 19.3675 38.1999 19.309C37.8667 19.2465 37.4816 19.2216 37.0625 19.2216V21.2216ZM38.0078 21.3349C38.2976 21.5281 38.5991 21.6941 38.9025 21.7953L39.535 19.8979C39.4634 19.8741 39.3274 19.8109 39.1172 19.6708L38.0078 21.3349ZM39.0226 21.8272C39.0679 21.8362 39.0914 21.8453 39.0992 21.8487C39.1062 21.8518 39.0964 21.8485 39.0786 21.8336L40.3589 20.2971C40.0727 20.0586 39.7382 19.9307 39.4149 19.866L39.0226 21.8272ZM39.0786 21.8336C39.0833 21.8375 39.1063 21.8577 39.1368 21.9188L40.9257 21.0244C40.7896 20.7521 40.6042 20.5015 40.3589 20.2971L39.0786 21.8336ZM39.163 21.9677C39.3366 22.2715 39.6039 22.5304 39.8668 22.7455L41.1332 21.1976C41.0433 21.1241 40.9812 21.0655 40.9405 21.022C40.898 20.9768 40.8914 20.9613 40.8995 20.9754L39.163 21.9677ZM39.8668 22.7455C39.8711 22.7491 39.8691 22.7481 39.8641 22.7418C39.8589 22.7352 39.8533 22.7264 39.8487 22.7164C39.8442 22.7065 39.8426 22.6998 39.8424 22.6985C39.8422 22.6977 39.8438 22.7046 39.8438 22.7216H41.8438C41.8438 22.1283 41.6089 21.5868 41.1332 21.1976L39.8668 22.7455ZM39.8438 22.7216C39.8438 22.8456 39.8136 22.9563 39.7421 23.0725L41.4454 24.1207C41.7073 23.6952 41.8438 23.2226 41.8438 22.7216H39.8438ZM39.7597 23.0449C37.1089 27.0523 33.8551 32.1 29.999 38.1864L31.6885 39.2568C35.5407 33.1765 38.7869 28.1408 41.4278 24.1483L39.7597 23.0449ZM31.3052 39.6087C36.503 36.905 42.4339 33.4526 49.0956 29.2551L48.0294 27.563C41.3994 31.7405 35.5178 35.1631 30.3823 37.8344L31.3052 39.6087ZM49.0975 29.2539C52.4242 27.1474 54.997 25.4673 56.81 24.2166C57.7156 23.5919 58.4415 23.0675 58.9807 22.6465C59.4827 22.2545 59.9231 21.8774 60.1544 21.5571L58.5331 20.3861C58.5349 20.3836 58.5221 20.4012 58.4834 20.4416C58.4465 20.4803 58.3951 20.5304 58.3261 20.5929C58.1875 20.7184 57.9973 20.8768 57.7498 21.0701C57.2552 21.4564 56.5657 21.9554 55.6743 22.5703C53.8936 23.7988 51.3466 25.4625 48.0275 27.5642L49.0975 29.2539ZM60.2012 21.4861C60.1935 21.499 60.157 21.5523 60.0773 21.5991C59.995 21.6476 59.9176 21.6591 59.875 21.6591V19.6591C59.2696 19.6591 58.7788 19.9696 58.4863 20.4571L60.2012 21.4861ZM64.6562 36.4091L63.9723 37.1386L63.9785 37.1444L63.9847 37.1501L64.6562 36.4091ZM65.7812 29.8466L66.4884 30.5537L66.4935 30.5485L65.7812 29.8466ZM71.6875 25.7841L72.1377 26.677L72.1405 26.6756L71.6875 25.7841ZM98.8438 21.5966L98.5939 22.5649L98.6037 22.5673L98.8438 21.5966ZM103.375 23.4091L102.817 24.2387L102.826 24.2448L102.835 24.2508L103.375 23.4091ZM106.094 25.8153L105.309 26.4356L105.31 26.436L106.094 25.8153ZM106.375 35.1903L107.23 35.7096L106.375 35.1903ZM102.469 39.5966L103.095 40.3765L103.096 40.3755L102.469 39.5966ZM97 43.1591L97.4681 44.0428L97.472 44.0407L97 43.1591ZM84.625 47.6591L84.412 46.682L82.6524 47.0657L83.9083 48.3564L84.625 47.6591ZM89.375 53.4716L88.5859 54.0859L88.5905 54.0917L89.375 53.4716ZM96.0312 61.2216L95.3099 61.9141L95.3135 61.9178L96.0312 61.2216ZM100.719 64.3466V65.3466H100.895L101.06 65.2864L100.719 64.3466ZM101.75 63.9716V62.9716H101.574L101.408 63.0318L101.75 63.9716ZM100.938 65.7841L100.195 65.1141L100.194 65.1151L100.938 65.7841ZM85.4062 58.1591L84.6128 58.7678L84.6169 58.773L85.4062 58.1591ZM81.4062 52.8153L80.5975 53.4035L80.6004 53.4074L81.4062 52.8153ZM78.3125 48.6278L79.1043 48.017L78.2263 46.8789L77.4645 48.0978L78.3125 48.6278ZM76.7188 51.1278L77.5569 51.6733L77.5608 51.6673L76.7188 51.1278ZM73.125 56.7841L73.9705 57.3181L73.9746 57.3115L73.125 56.7841ZM71.375 59.6591L72.2357 60.1681L72.2395 60.1617L72.2432 60.1552L71.375 59.6591ZM68.9688 64.0028L68.0666 63.5714L68.0628 63.5794L68.0591 63.5875L68.9688 64.0028ZM66.7812 65.4403L66.7527 66.4399L66.767 66.4403H66.7812V65.4403ZM65.6875 65.4091L65.7161 64.4095L65.6851 64.4086L65.6542 64.4096L65.6875 65.4091ZM64.75 65.4403V66.4403H64.7667L64.7833 66.4398L64.75 65.4403ZM63.8438 60.3466L62.9372 59.9244L62.9347 59.9299L63.8438 60.3466ZM74.9688 43.4403L75.7926 44.0072L75.7932 44.0063L74.9688 43.4403ZM86.0625 27.8153L86.7472 28.5442L86.753 28.5388L86.7586 28.5332L86.0625 27.8153ZM87.5938 26.6903L87.8363 27.6605L88.0322 27.6115L88.1937 27.4903L87.5938 26.6903ZM88.0938 26.4091L88.2581 25.4227L88.1765 25.4091H88.0938V26.4091ZM88.6562 26.5028L88.4919 27.4892L88.6611 27.5174L88.83 27.4876L88.6562 26.5028ZM89.1875 26.4091V25.4091H89.0999L89.0137 25.4243L89.1875 26.4091ZM89.6875 26.6591L88.9349 27.3176L88.9568 27.3427L88.9804 27.3662L89.6875 26.6591ZM90 26.9403L90.5938 26.1358L90.5746 26.1216L90.5547 26.1083L90 26.9403ZM90.9688 29.8466L90.0925 29.3647L90.0881 29.3727L90.0838 29.3808L90.9688 29.8466ZM89.1875 32.5653L88.3649 31.9968L89.1875 32.5653ZM85.3125 38.0966L84.4957 37.5196L84.4947 37.5211L85.3125 38.0966ZM81.875 43.0028L81.0534 42.4328L79.8962 44.1006L81.9237 44.0017L81.875 43.0028ZM94.75 38.0028L95.2891 38.8451L95.2912 38.8437L94.75 38.0028ZM100.125 33.6278L99.399 32.9401L99.3988 32.9404L100.125 33.6278ZM101.406 27.8153L100.778 28.5938L100.786 28.6L100.794 28.6061L101.406 27.8153ZM98.9688 26.5966L98.6833 27.555L98.9688 26.5966ZM83 27.3153L82.7288 26.3528L83 27.3153ZM74.75 30.3778L75.2348 31.2525L75.2427 31.248L74.75 30.3778ZM71 32.8466L71.6542 33.603L71.6599 33.598L71.6656 33.5929L71 32.8466ZM71.625 34.1591L72.155 35.0071L72.1735 34.9955L72.1915 34.9831L71.625 34.1591ZM72.2188 34.8153C72.1861 34.8153 71.9886 34.8003 71.8205 34.6098C71.6734 34.4431 71.6875 34.295 71.6875 34.3466H73.6875C73.6875 34.044 73.6235 33.6303 73.3202 33.2865C72.9958 32.9189 72.5639 32.8153 72.2188 32.8153V34.8153ZM71.6875 34.3466C71.6875 34.2653 71.7055 34.1842 71.7381 34.1125C71.7693 34.0437 71.8056 34.0018 71.8241 33.9832L73.2384 35.3974C73.494 35.1418 73.6875 34.7838 73.6875 34.3466H71.6875ZM71.8241 33.9832C70.2451 35.5623 68.4727 36.3153 66.4688 36.3153V38.3153C69.0482 38.3153 71.3174 37.3184 73.2384 35.3974L71.8241 33.9832ZM66.4688 36.3153C66.2947 36.3153 65.924 36.2084 65.3278 35.6681L63.9847 37.1501C64.7218 37.8181 65.5594 38.3153 66.4688 38.3153V36.3153ZM65.3402 35.6796C64.9275 35.2927 64.6562 34.6929 64.6562 33.7216H62.6562C62.6562 35.0836 63.0516 36.2755 63.9723 37.1386L65.3402 35.6796ZM64.6562 33.7216C64.6562 32.9564 65.1337 31.9083 66.4884 30.5537L65.0741 29.1395C63.5955 30.6182 62.6562 32.1535 62.6562 33.7216H64.6562ZM66.4935 30.5485C67.81 29.2126 69.6783 27.9169 72.1377 26.677L71.2373 24.8911C68.655 26.193 66.5858 27.6056 65.069 29.1447L66.4935 30.5485ZM72.1405 26.6756C74.6005 25.4254 77.6958 24.3017 81.4425 23.3135L80.9325 21.3797C77.0959 22.3915 73.8578 23.5594 71.2345 24.8926L72.1405 26.6756ZM81.4425 23.3135C85.1742 22.3293 88.4926 21.8466 91.4062 21.8466V19.8466C88.2782 19.8466 84.7841 20.3638 80.9325 21.3797L81.4425 23.3135ZM91.4062 21.8466C94.3809 21.8466 96.7681 22.0937 98.5939 22.5649L99.0936 20.6283C97.0444 20.0995 94.4732 19.8466 91.4062 19.8466V21.8466ZM98.6037 22.5673C100.481 23.0317 101.867 23.5998 102.817 24.2387L103.933 22.5795C102.716 21.76 101.081 21.1198 99.0838 20.6258L98.6037 22.5673ZM102.835 24.2508C103.86 24.9081 104.679 25.6384 105.309 26.4356L106.878 25.1951C106.092 24.2006 105.099 23.3268 103.915 22.5674L102.835 24.2508ZM105.31 26.436C106.39 27.8002 106.875 29.1189 106.875 30.4091H108.875C108.875 28.5742 108.173 26.8305 106.878 25.1946L105.31 26.436ZM106.875 30.4091C106.875 31.7271 106.449 33.143 105.52 34.6711L107.23 35.7096C108.301 33.946 108.875 32.1744 108.875 30.4091H106.875ZM105.52 34.6711C104.585 36.2112 103.362 37.5937 101.842 38.8177L103.096 40.3755C104.784 39.0162 106.165 37.4612 107.23 35.7096L105.52 34.6711ZM101.843 38.8167C100.314 40.0437 98.5442 41.1981 96.528 42.2775L97.472 44.0407C99.5808 42.9117 101.457 41.6912 103.095 40.3765L101.843 38.8167ZM96.5319 42.2754C92.7606 44.2732 88.7218 45.7425 84.412 46.682L84.838 48.6361C89.3199 47.659 93.531 46.1283 97.4681 44.0428L96.5319 42.2754ZM83.9083 48.3564C84.6117 49.0794 86.1587 50.9681 88.5859 54.0859L90.1641 52.8573C87.758 49.7667 86.1383 47.7804 85.3417 46.9617L83.9083 48.3564ZM88.5905 54.0917C91.0413 57.1919 93.2814 59.8012 95.3099 61.9141L96.7526 60.5291C94.7811 58.4754 92.5837 55.9179 90.1595 52.8514L88.5905 54.0917ZM95.3135 61.9178C96.3496 62.9861 97.301 63.822 98.164 64.3974C99.007 64.9594 99.8743 65.3466 100.719 65.3466V63.3466C100.459 63.3466 99.993 63.213 99.2735 62.7333C98.574 62.267 97.7337 61.5404 96.749 60.5253L95.3135 61.9178ZM101.06 65.2864L102.092 64.9114L101.408 63.0318L100.377 63.4068L101.06 65.2864ZM101.75 64.9716C101.742 64.9716 101.7 64.9712 101.637 64.9539C101.572 64.9361 101.474 64.8975 101.375 64.8159C101.14 64.6239 101.094 64.3721 101.094 64.2528H103.094C103.094 63.9461 102.99 63.5537 102.641 63.2679C102.33 63.0136 101.975 62.9716 101.75 62.9716V64.9716ZM101.094 64.2528C101.094 64.0997 101.134 63.9954 101.141 63.9751C101.154 63.9432 101.161 63.9321 101.152 63.9476C101.135 63.9787 101.091 64.046 101.007 64.158C100.84 64.3786 100.574 64.6945 100.195 65.1141L101.68 66.4541C102.072 66.0195 102.384 65.6531 102.603 65.3633C102.711 65.2201 102.812 65.0751 102.891 64.937C102.93 64.8679 102.974 64.7829 103.01 64.6878C103.042 64.6043 103.094 64.4477 103.094 64.2528H101.094ZM100.194 65.1151C99.464 65.9264 98.8522 66.5141 98.3548 66.901L99.5827 68.4797C100.21 67.9915 100.911 67.3084 101.681 66.4531L100.194 65.1151ZM98.3548 66.901C98.0232 67.1589 97.4951 67.3466 96.6562 67.3466V69.3466C97.7757 69.3466 98.7893 69.0968 99.5827 68.4797L98.3548 66.901ZM96.6562 67.3466C96.0152 67.3466 95.1352 67.0252 93.9815 66.1452L92.7685 67.7355C94.0732 68.7305 95.3806 69.3466 96.6562 69.3466V67.3466ZM93.9815 66.1452C92.8277 65.2653 91.5353 63.9987 90.1043 62.3223L88.5832 63.6208C90.0688 65.3612 91.4639 66.7404 92.7685 67.7355L93.9815 66.1452ZM90.1043 62.3223C88.6541 60.6235 87.3514 59.0312 86.1956 57.5451L84.6169 58.773C85.7944 60.2869 87.1167 61.903 88.5832 63.6208L90.1043 62.3223ZM86.1997 57.5504C85.0383 56.0365 83.7093 54.261 82.2121 52.2233L80.6004 53.4074C82.1032 55.453 83.4409 57.24 84.6128 58.7677L86.1997 57.5504ZM82.215 52.2272C80.7159 50.1659 79.6767 48.759 79.1043 48.017L77.5207 49.2386C78.0733 49.955 79.0966 51.3398 80.5975 53.4035L82.215 52.2272ZM77.4645 48.0978C77.2598 48.4254 76.732 49.2533 75.8767 50.5884L77.5608 51.6673C78.4138 50.3357 78.9485 49.497 79.1605 49.1578L77.4645 48.0978ZM75.8806 50.5824C75.0261 51.8954 74.3983 52.8685 73.9989 53.499L75.6886 54.5691C76.0809 53.9497 76.7031 52.9853 77.5569 51.6733L75.8806 50.5824ZM73.9989 53.499C73.6006 54.1279 73.0258 55.0477 72.2754 56.2567L73.9746 57.3115C74.7242 56.1038 75.2952 55.1902 75.6886 54.5691L73.9989 53.499ZM72.2795 56.2501C71.5261 57.443 70.9339 58.4154 70.5068 59.1629L72.2432 60.1552C72.6494 59.4445 73.2239 58.5002 73.9705 57.3181L72.2795 56.2501ZM70.5143 59.15C69.3661 61.0914 68.5451 62.571 68.0666 63.5714L69.8709 64.4343C70.3091 63.518 71.0922 62.1018 72.2357 60.1681L70.5143 59.15ZM68.0591 63.5875C67.9022 63.9312 67.7219 64.1287 67.5446 64.2453C67.3693 64.3605 67.1304 64.4403 66.7812 64.4403V66.4403C67.453 66.4403 68.0891 66.2806 68.6429 65.9167C69.1948 65.554 69.5978 65.0328 69.8784 64.4181L68.0591 63.5875ZM66.8098 64.4407L65.7161 64.4095L65.6589 66.4087L66.7527 66.4399L66.8098 64.4407ZM65.6542 64.4096L64.7167 64.4409L64.7833 66.4398L65.7208 66.4085L65.6542 64.4096ZM64.75 64.4403C64.2196 64.4403 64.0081 64.3255 63.9395 64.2679C63.9045 64.2386 63.8125 64.1522 63.8125 63.8153H61.8125C61.8125 64.5618 62.0434 65.2879 62.6543 65.8003C63.2315 66.2844 63.9887 66.4403 64.75 66.4403V64.4403ZM63.8125 63.8153C63.8125 63.2305 64.076 62.2399 64.7528 60.7632L62.9347 59.9299C62.2365 61.4532 61.8125 62.7752 61.8125 63.8153H63.8125ZM64.7503 60.7688C65.0665 60.0898 66.1222 58.37 67.9916 55.5291C69.8402 52.7199 72.4399 48.88 75.7926 44.0072L74.1449 42.8735C70.7893 47.7506 68.1806 51.6035 66.3209 54.4297C64.482 57.2242 63.3294 59.0825 62.9372 59.9244L64.7503 60.7688ZM75.7932 44.0063C79.1464 39.1223 81.7445 35.3826 83.5888 32.7849C84.5114 31.4855 85.2421 30.4765 85.7828 29.7547C86.3495 28.9982 86.6528 28.6328 86.7472 28.5442L85.3778 27.0865C85.1284 27.3208 84.7117 27.8486 84.1821 28.5556C83.6264 29.2974 82.8844 30.3223 81.9581 31.627C80.1045 34.2377 77.4994 37.9876 74.1443 42.8743L75.7932 44.0063ZM86.7586 28.5332C87.0845 28.2173 87.3479 27.9907 87.553 27.84C87.7768 27.6756 87.8611 27.6543 87.8363 27.6605L87.3512 25.7202C86.993 25.8097 86.6555 26.0176 86.3689 26.2282C86.0635 26.4525 85.728 26.7467 85.3664 27.0974L86.7586 28.5332ZM88.1937 27.4903C88.246 27.4511 88.2896 27.4201 88.3251 27.3961C88.3612 27.3717 88.3845 27.3577 88.3965 27.351C88.4109 27.3429 88.3991 27.3509 88.3667 27.363C88.3496 27.3694 88.3192 27.3798 88.2781 27.3891C88.2381 27.3981 88.1744 27.4091 88.0938 27.4091V25.4091C87.7669 25.4091 87.5019 25.5595 87.416 25.6078C87.2784 25.6852 87.1348 25.7846 86.9938 25.8903L88.1937 27.4903ZM87.9294 27.3955L88.4919 27.4892L88.8206 25.5164L88.2581 25.4227L87.9294 27.3955ZM88.83 27.4876L89.3613 27.3939L89.0137 25.4243L88.4825 25.5181L88.83 27.4876ZM89.1875 27.4091C89.127 27.4091 89.0623 27.3942 89.0059 27.366C88.9534 27.3398 88.9317 27.3139 88.9349 27.3176L90.4401 26.0006C90.1422 25.6601 89.7162 25.4091 89.1875 25.4091V27.4091ZM88.9804 27.3662C89.1189 27.5047 89.2886 27.6679 89.4453 27.7724L90.5547 26.1083C90.5737 26.1209 90.5817 26.1279 90.5759 26.1232C90.5714 26.1195 90.561 26.1108 90.544 26.0955C90.5094 26.0644 90.4603 26.0177 90.3946 25.952L88.9804 27.3662ZM89.4062 27.7449C89.8088 28.0421 90.0625 28.281 90.2064 28.4593C90.3611 28.6508 90.3125 28.676 90.3125 28.5653H92.3125C92.3125 28.0172 92.0452 27.5528 91.7623 27.2026C91.4688 26.8392 91.0662 26.4844 90.5938 26.1358L89.4062 27.7449ZM90.3125 28.5653C90.3125 28.8199 90.2477 29.0825 90.0925 29.3647L91.845 30.3285C92.1481 29.7774 92.3125 29.1858 92.3125 28.5653H90.3125ZM90.0838 29.3808C89.9097 29.7117 89.356 30.5628 88.3649 31.9968L90.0101 33.1339C90.9773 31.7345 91.6111 30.7732 91.8537 30.3123L90.0838 29.3808ZM88.3649 31.9968C87.3885 33.4095 86.099 35.2501 84.4957 37.5196L86.1293 38.6736C87.7344 36.4014 89.0282 34.5546 90.0101 33.1339L88.3649 31.9968ZM84.4947 37.5211C82.9112 39.7713 81.7638 41.409 81.0534 42.4328L82.6966 43.5729C83.4029 42.555 84.5471 40.9219 86.1303 38.6721L84.4947 37.5211ZM81.9237 44.0017C83.7839 43.9109 85.9508 43.3496 88.4026 42.3688L87.6599 40.5119C85.32 41.4478 83.3827 41.9281 81.8263 42.004L81.9237 44.0017ZM88.4026 42.3688C90.8544 41.3881 93.1504 40.2138 95.2891 38.8451L94.2109 37.1606C92.1829 38.4585 89.9997 39.5759 87.6599 40.5119L88.4026 42.3688ZM95.2912 38.8437C97.4523 37.4529 99.3087 35.9448 100.851 34.3153L99.3988 32.9404C97.983 34.4359 96.2561 35.8444 94.2088 37.1619L95.2912 38.8437ZM100.851 34.3156C102.391 32.6903 103.375 31.0714 103.375 29.5028H101.375C101.375 30.2676 100.859 31.3988 99.399 32.9401L100.851 34.3156ZM103.375 29.5028C103.375 28.4782 102.827 27.6509 102.018 27.0246L100.794 28.6061C101.277 28.9798 101.375 29.2775 101.375 29.5028H103.375ZM102.034 27.0369C101.266 26.4179 100.33 25.9587 99.2542 25.6382L98.6833 27.555C99.5657 27.8178 100.254 28.1711 100.778 28.5938L102.034 27.0369ZM99.2542 25.6382C97.1867 25.0223 94.8798 24.7216 92.3438 24.7216V26.7216C94.7243 26.7216 96.8341 27.0042 98.6833 27.555L99.2542 25.6382ZM92.3438 24.7216C89.756 24.7216 86.5422 25.2783 82.7288 26.3528L83.2712 28.2779C86.9994 27.2274 90.0148 26.7216 92.3438 26.7216V24.7216ZM82.7288 26.3528C78.9401 27.4204 76.0949 28.4671 74.2573 29.5077L75.2427 31.248C76.8634 30.3303 79.5183 29.3353 83.2712 28.2779L82.7288 26.3528ZM74.2653 29.5032C72.5187 30.4712 71.1901 31.3371 70.3344 32.1003L71.6656 33.5929C72.3516 32.9811 73.523 32.2012 75.2347 31.2525L74.2653 29.5032ZM70.3458 32.0902C69.9422 32.4393 69.605 32.7655 69.3604 33.063C69.238 33.2119 69.1203 33.3757 69.0292 33.5505C68.9431 33.7156 68.8438 33.9604 68.8438 34.2528H70.8438C70.8438 34.4098 70.7925 34.4945 70.8028 34.4747C70.8081 34.4646 70.8349 34.4188 70.9052 34.3333C71.046 34.162 71.2869 33.9205 71.6542 33.603L70.3458 32.0902ZM68.8438 34.2528C68.8438 34.5561 68.9626 34.8323 69.1587 35.0382C69.3327 35.2209 69.5319 35.3126 69.6697 35.3608C69.9364 35.4541 70.2293 35.4716 70.4688 35.4716V33.4716C70.2915 33.4716 70.272 33.4526 70.3304 33.473C70.3639 33.4848 70.485 33.5309 70.6069 33.6589C70.751 33.8101 70.8438 34.0225 70.8438 34.2528H68.8438ZM70.4688 35.4716C71.0718 35.4716 71.6452 35.3257 72.155 35.0071L71.095 33.3111C70.9382 33.4091 70.7407 33.4716 70.4688 33.4716V35.4716ZM72.1915 34.9831C72.3504 34.8739 72.4586 34.8049 72.5245 34.7667C72.5587 34.7469 72.5642 34.7455 72.5492 34.7521C72.5415 34.7555 72.5147 34.7671 72.4739 34.7792C72.4528 34.7855 72.4217 34.7938 72.3829 34.8008C72.3452 34.8076 72.2886 34.8153 72.2188 34.8153V32.8153C71.9749 32.8153 71.7816 32.9048 71.7437 32.9215C71.6636 32.9568 71.5871 32.9984 71.5224 33.0359C71.3904 33.1123 71.2329 33.2151 71.0585 33.335L72.1915 34.9831Z"/><path fill="#000" d="M56.5625 19.75L57.6875 20.0625C60.3333 20.4583 61.6562 21.25 61.6562 22.4375C61.6562 22.7708 61.5312 23.0521 61.2812 23.2812C58.4688 25.8021 54.7292 28.5208 50.0625 31.4375C42.9375 35.875 34.8542 40.1667 25.8125 44.3125C28.7708 46 32.7812 48.8021 37.8438 52.7188C44.6354 57.7396 48.8125 60.25 50.375 60.25C50.9167 60.25 51.375 60.1042 51.75 59.8125C52.1458 59.5 52.3646 59.3438 52.4062 59.3438C52.7604 59.3438 52.9375 59.5104 52.9375 59.8438C52.9375 60.1354 52.5833 60.9688 51.875 62.3438C51.1875 63.7188 50.5938 64.625 50.0938 65.0625C49.6146 65.5 48.8438 65.7188 47.7812 65.7188C46.7188 65.7188 45.3021 65.1979 43.5312 64.1562C41.7604 63.1146 39.8229 61.8125 37.7188 60.25C35.6354 58.6667 33.5521 57.0625 31.4688 55.4375C26.1979 51.375 22.6458 48.9688 20.8125 48.2188C14.3958 58.3438 11.0938 63.5833 10.9062 63.9375C10.7396 64.2917 10.5104 64.5833 10.2188 64.8125C9.94792 65.0208 9.77083 65.125 9.6875 65.125L8.34375 65.3125L7.25 65.25C6.95833 65.25 6.75 65.2917 6.625 65.375C6.5 65.4792 6.36458 65.5521 6.21875 65.5938C6.07292 65.6354 5.94792 65.6979 5.84375 65.7812C5.73958 65.8854 5.57292 65.9375 5.34375 65.9375C5.13542 65.9375 4.83333 65.7604 4.4375 65.4062C4.0625 65.0729 3.875 64.7812 3.875 64.5312C3.875 64.2812 4.02083 63.8438 4.3125 63.2188C4.625 62.5938 8.46875 56.7917 15.8438 45.8125H15.25C13.8542 45.8125 13.1562 45.4375 13.1562 44.6875C13.1562 43.9167 13.5 43.1562 14.1875 42.4062C14.8958 41.6354 15.6042 41.25 16.3125 41.25C17.0208 41.25 17.8021 41.3125 18.6562 41.4375C22.5938 35.625 25.625 31.0625 27.75 27.75C25.3333 30.0208 23.0417 31.1562 20.875 31.1562C19.8333 31.1562 19.0104 30.8021 18.4062 30.0938C17.8021 29.3646 17.5 28.5417 17.5 27.625C17.5 26.7083 17.7292 25.9583 18.1875 25.375C18.6667 24.7917 19.125 24.3854 19.5625 24.1562C20 23.9271 20.3021 23.8125 20.4688 23.8125C20.6354 23.8125 20.7188 23.8958 20.7188 24.0625L20.4688 24.8125C20.4688 25.1042 20.9167 25.25 21.8125 25.25C22.7083 25.25 23.9583 24.7604 25.5625 23.7812C27.1667 22.7812 28.7396 21.7917 30.2812 20.8125C31.8229 19.8125 32.9792 19.3125 33.75 19.3125C34.5208 19.3125 35.0208 19.4062 35.25 19.5938C35.5 19.7604 35.7188 19.875 35.9062 19.9375C36.1146 19.9792 36.2812 20.0521 36.4062 20.1562C36.5312 20.2604 36.6354 20.3958 36.7188 20.5625C36.8021 20.7083 36.9583 20.875 37.1875 21.0625C37.4167 21.25 37.5312 21.5 37.5312 21.8125C37.5312 22.125 37.4479 22.4167 37.2812 22.6875C34.6354 26.6875 31.3854 31.7292 27.5312 37.8125C32.6979 35.125 38.6042 31.6875 45.25 27.5C51.8958 23.2917 55.4896 20.8125 56.0312 20.0625C56.1562 19.8542 56.3333 19.75 56.5625 19.75ZM68.9062 32.9062C69.2188 32.9062 69.375 33.0833 69.375 33.4375C69.375 33.5625 69.3229 33.6771 69.2188 33.7812C67.4688 35.5312 65.4479 36.4062 63.1562 36.4062C62.6146 36.4062 62.0104 36.1042 61.3438 35.5C60.6771 34.875 60.3438 33.9792 60.3438 32.8125C60.3438 31.6458 61.0521 30.3542 62.4688 28.9375C63.8854 27.5 65.8542 26.1458 68.375 24.875C70.9167 23.5833 74.0833 22.4375 77.875 21.4375C81.6667 20.4375 85.0729 19.9375 88.0938 19.9375C91.1146 19.9375 93.5938 20.1875 95.5312 20.6875C97.4688 21.1667 98.9792 21.7708 100.062 22.5C101.167 23.2083 102.073 24.0104 102.781 24.9062C103.969 26.4062 104.562 27.9375 104.562 29.5C104.562 31.0417 104.062 32.6354 103.062 34.2812C102.062 35.9271 100.76 37.3958 99.1562 38.6875C97.5729 39.9583 95.75 41.1458 93.6875 42.25C89.8333 44.2917 85.7083 45.7917 81.3125 46.75C82.0625 47.5208 83.6458 49.4583 86.0625 52.5625C88.5 55.6458 90.7188 58.2292 92.7188 60.3125C94.7396 62.3958 96.3021 63.4375 97.4062 63.4375L98.4375 63.0625C98.6667 63.0625 98.7812 63.1562 98.7812 63.3438C98.7812 63.5104 98.3958 64.0208 97.625 64.875C96.875 65.7083 96.2188 66.3438 95.6562 66.7812C95.0938 67.2188 94.3229 67.4375 93.3438 67.4375C92.3854 67.4375 91.2917 66.9688 90.0625 66.0312C88.8333 65.0938 87.4896 63.7708 86.0312 62.0625C84.5729 60.3542 83.2604 58.75 82.0938 57.25C80.9271 55.7292 79.5938 53.9479 78.0938 51.9062C76.5938 49.8438 75.5625 48.4479 75 47.7188C74.7917 48.0521 74.2604 48.8854 73.4062 50.2188C72.5521 51.5312 71.9271 52.5 71.5312 53.125C71.1354 53.75 70.5625 54.6667 69.8125 55.875C69.0625 57.0625 68.4792 58.0208 68.0625 58.75C66.9167 60.6875 66.1146 62.1354 65.6562 63.0938C65.2188 64.0521 64.4896 64.5312 63.4688 64.5312L62.375 64.5L61.4375 64.5312C60.1458 64.5312 59.5 63.9896 59.5 62.9062C59.5 62.0938 59.8438 60.9375 60.5312 59.4375C61.2396 57.9167 64.9479 52.2812 71.6562 42.5312C78.3646 32.7604 82.0625 27.5521 82.75 26.9062C83.4375 26.2396 83.9479 25.8646 84.2812 25.7812C84.5312 25.5938 84.6979 25.5 84.7812 25.5L85.3438 25.5938L85.875 25.5C86.0625 25.5 86.2292 25.5833 86.375 25.75C86.5208 25.8958 86.625 25.9896 86.6875 26.0312C87.5625 26.6771 88 27.2188 88 27.6562C88 28.0938 87.8854 28.5208 87.6562 28.9375C87.4479 29.3333 86.8542 30.2396 85.875 31.6562C84.8958 33.0729 83.6042 34.9167 82 37.1875C80.4167 39.4375 79.2708 41.0729 78.5625 42.0938C80.2708 42.0104 82.3229 41.4896 84.7188 40.5312C87.1146 39.5729 89.3542 38.4271 91.4375 37.0938C93.5417 35.7396 95.3333 34.2812 96.8125 32.7188C98.3125 31.1354 99.0625 29.7604 99.0625 28.5938C99.0625 27.9688 98.7396 27.4062 98.0938 26.9062C97.4479 26.3854 96.6354 25.9792 95.6562 25.6875C93.6979 25.1042 91.4896 24.8125 89.0312 24.8125C86.5729 24.8125 83.4583 25.3438 79.6875 26.4062C75.9167 27.4688 73.1667 28.4896 71.4375 29.4688C69.7083 30.4271 68.4583 31.25 67.6875 31.9375C66.9167 32.6042 66.5312 33.0729 66.5312 33.3438C66.5312 33.4896 66.7396 33.5625 67.1562 33.5625C67.5938 33.5625 67.9792 33.4583 68.3125 33.25C68.6458 33.0208 68.8438 32.9062 68.9062 32.9062Z"/><path fill="#fff" d="M56.5625 19.75L56.8301 18.7865L56.6988 18.75H56.5625V19.75ZM57.6875 20.0625L57.4199 21.026L57.4789 21.0424L57.5395 21.0515L57.6875 20.0625ZM61.2812 23.2812L61.9487 24.026L61.957 24.0184L61.2812 23.2812ZM50.0625 31.4375L50.5912 32.2863L50.5925 32.2855L50.0625 31.4375ZM25.8125 44.3125L25.3957 43.4035L23.6245 44.2157L25.317 45.1811L25.8125 44.3125ZM37.8438 52.7188L37.2318 53.5097L37.2405 53.5164L37.2493 53.5229L37.8438 52.7188ZM51.75 59.8125L52.364 60.6019L52.3696 60.5974L51.75 59.8125ZM51.875 62.3438L50.986 61.8858L50.9806 61.8965L51.875 62.3438ZM50.0938 65.0625L49.4352 64.3099L49.4273 64.3169L49.4195 64.324L50.0938 65.0625ZM37.7188 60.25L37.1136 61.0462L37.1226 61.0529L37.7188 60.25ZM31.4688 55.4375L32.0838 54.649L32.0792 54.6455L31.4688 55.4375ZM20.8125 48.2188L21.1911 47.2932L20.4161 46.9761L19.9678 47.6834L20.8125 48.2188ZM10.9062 63.9375L10.0225 63.4696L10.0115 63.4904L10.0014 63.5117L10.9062 63.9375ZM10.2188 64.8125L10.8285 65.6052L10.8366 65.5988L10.2188 64.8125ZM9.6875 65.125V64.125H9.61807L9.5493 64.1346L9.6875 65.125ZM8.34375 65.3125L8.2867 66.3109L8.38471 66.3165L8.48195 66.3029L8.34375 65.3125ZM7.25 65.25L7.30705 64.2516L7.27855 64.25H7.25V65.25ZM6.625 65.375L6.0703 64.543L6.02585 64.5726L5.98482 64.6068L6.625 65.375ZM5.84375 65.7812L5.21905 65.0004L5.17581 65.035L5.13664 65.0741L5.84375 65.7812ZM4.4375 65.4062L5.1043 64.661L5.10186 64.6588L4.4375 65.4062ZM4.3125 63.2188L3.41807 62.7715L3.41203 62.7836L3.40632 62.7959L4.3125 63.2188ZM15.8438 45.8125L16.6739 46.3701L17.7201 44.8125H15.8438V45.8125ZM14.1875 42.4062L13.4512 41.7296L13.4503 41.7305L14.1875 42.4062ZM18.6562 41.4375L18.5115 42.427L19.1323 42.5178L19.4842 41.9983L18.6562 41.4375ZM27.75 27.75L28.5917 28.29L27.0652 27.0212L27.75 27.75ZM18.4062 30.0938L17.6362 30.7318L17.6408 30.7373L17.6454 30.7427L18.4062 30.0938ZM18.1875 25.375L17.4148 24.7403L17.4079 24.7486L17.4012 24.7572L18.1875 25.375ZM20.7188 24.0625L21.6674 24.3787L21.7188 24.2248V24.0625H20.7188ZM20.4688 24.8125L19.5201 24.4963L19.4688 24.6502V24.8125H20.4688ZM25.5625 23.7812L26.0835 24.6348L26.0915 24.6299L25.5625 23.7812ZM30.2812 20.8125L30.8174 21.6567L30.8254 21.6515L30.2812 20.8125ZM35.25 19.5938L34.6168 20.3677L34.6546 20.3987L34.6953 20.4258L35.25 19.5938ZM35.9062 19.9375L35.59 20.8862L35.6491 20.9059L35.7101 20.9181L35.9062 19.9375ZM36.7188 20.5625L35.8243 21.0097L35.8367 21.0345L35.8505 21.0586L36.7188 20.5625ZM37.2812 22.6875L38.1153 23.2392L38.1243 23.2255L38.1329 23.2116L37.2812 22.6875ZM27.5312 37.8125L26.6865 37.2773L24.7004 40.4122L27.9927 38.6997L27.5312 37.8125ZM45.25 27.5L45.7831 28.3461L45.785 28.3449L45.25 27.5ZM56.0312 20.0625L56.8419 20.648L56.8668 20.6135L56.8887 20.577L56.0312 20.0625ZM56.2949 20.7135L57.4199 21.026L57.9551 19.099L56.8301 18.7865L56.2949 20.7135ZM57.5395 21.0515C58.8142 21.2422 59.6549 21.5146 60.1506 21.8112C60.613 22.088 60.6562 22.3006 60.6562 22.4375H62.6562C62.6562 21.3869 62.038 20.61 61.1776 20.095C60.3503 19.6 59.2066 19.2786 57.8355 19.0735L57.5395 21.0515ZM60.6562 22.4375C60.6562 22.476 60.6498 22.4899 60.6487 22.4923C60.6474 22.4951 60.6397 22.5128 60.6055 22.5441L61.957 24.0184C62.4095 23.6036 62.6562 23.0567 62.6562 22.4375H60.6562ZM60.6138 22.5366C57.8586 25.0061 54.1704 27.6908 49.5325 30.5895L50.5925 32.2855C55.288 29.3508 59.0789 26.5981 61.9487 24.0259L60.6138 22.5366ZM49.5338 30.5887C42.4507 35.0001 34.4057 39.2722 25.3957 43.4035L26.2293 45.2215C35.3027 41.0611 43.4243 36.7499 50.5912 32.2863L49.5338 30.5887ZM25.317 45.1811C28.2137 46.8335 32.1802 49.6014 37.2318 53.5097L38.4557 51.9278C33.3823 48.0028 29.328 45.1665 26.308 43.4439L25.317 45.1811ZM37.2493 53.5229C40.6551 56.0407 43.4267 57.9451 45.5552 59.2243C46.6185 59.8633 47.54 60.3578 48.3122 60.6955C49.0544 61.0201 49.7673 61.25 50.375 61.25V59.25C50.2015 59.25 49.8063 59.1661 49.1136 58.8631C48.4508 58.5732 47.6107 58.1263 46.5854 57.5101C44.5369 56.2789 41.824 54.4177 38.4382 51.9146L37.2493 53.5229ZM50.375 61.25C51.1063 61.25 51.7892 61.0489 52.3639 60.6019L51.1361 59.0231C50.9608 59.1595 50.727 59.25 50.375 59.25V61.25ZM52.3696 60.5974C52.5638 60.4441 52.7026 60.3387 52.7922 60.2747C52.8389 60.2413 52.8575 60.2298 52.8563 60.2305C52.8547 60.2315 52.8493 60.2347 52.8408 60.2393C52.8327 60.2437 52.8173 60.2518 52.7961 60.2614C52.7769 60.2702 52.7394 60.2864 52.6891 60.3018C52.6631 60.3097 52.6273 60.3195 52.5839 60.3275C52.5416 60.3353 52.4805 60.3438 52.4062 60.3438V58.3438C52.1662 58.3438 51.9852 58.4331 51.9685 58.4407C51.909 58.4678 51.8591 58.4965 51.8273 58.5156C51.761 58.5553 51.6923 58.6025 51.6297 58.6472C51.5006 58.7394 51.332 58.8684 51.1304 59.0276L52.3696 60.5974ZM52.4062 60.3438C52.4438 60.3438 52.2859 60.3537 52.1193 60.1969C51.9413 60.0294 51.9375 59.8473 51.9375 59.8438H53.9375C53.9375 59.5069 53.8451 59.0747 53.4901 58.7406C53.1464 58.4171 52.7229 58.3438 52.4062 58.3438V60.3438ZM51.9375 59.8438C51.9375 59.7566 51.9555 59.7422 51.9172 59.8638C51.8863 59.9619 51.8334 60.1038 51.7515 60.2964C51.5885 60.6801 51.3356 61.2072 50.986 61.8858L52.764 62.8017C53.1227 62.1053 53.4011 61.5283 53.5922 61.0786C53.6875 60.8545 53.7673 60.6474 53.8249 60.4643C53.8752 60.3046 53.9375 60.0767 53.9375 59.8438H51.9375ZM50.9806 61.8965C50.2946 63.2686 49.7738 64.0137 49.4352 64.3099L50.7523 65.8151C51.4137 65.2363 52.0804 64.1689 52.7694 62.791L50.9806 61.8965ZM49.4195 64.324C49.2113 64.5141 48.7438 64.7188 47.7812 64.7188V66.7188C48.9437 66.7188 50.0179 66.4859 50.768 65.801L49.4195 64.324ZM47.7812 64.7188C46.9974 64.7188 45.7746 64.3157 44.0383 63.2943L43.0242 65.0182C44.8296 66.0801 46.4401 66.7188 47.7812 66.7188V64.7188ZM44.0383 63.2943C42.3052 62.2749 40.3978 60.9939 38.3149 59.4471L37.1226 61.0529C39.248 62.6311 41.2156 63.9543 43.0242 65.0182L44.0383 63.2943ZM38.3238 59.4538C36.2439 57.8731 34.1638 56.2715 32.0838 54.649L30.8537 56.226C32.9403 57.8535 35.027 59.4603 37.1137 61.0462L38.3238 59.4538ZM32.0792 54.6455C29.4354 52.6077 27.2119 50.977 25.4124 49.758C23.6294 48.5502 22.2105 47.7102 21.1911 47.2932L20.4339 49.1443C21.2479 49.4773 22.5216 50.2154 24.2907 51.4139C26.0433 52.6011 28.2313 54.2048 30.8583 56.2295L32.0792 54.6455ZM19.9678 47.6834C16.7594 52.7461 14.3292 56.5881 12.6774 59.209C11.0469 61.7963 10.1396 63.2484 10.0225 63.4696L11.79 64.4054C11.7878 64.4096 11.7986 64.3899 11.8362 64.327C11.8695 64.2713 11.9155 64.1955 11.975 64.0984C12.0938 63.9047 12.2617 63.634 12.4793 63.2851C12.9143 62.5879 13.5442 61.5849 14.3694 60.2754C16.0198 57.6567 18.4489 53.8164 21.6572 48.7541L19.9678 47.6834ZM10.0014 63.5117C9.8973 63.733 9.7634 63.8985 9.60093 64.0262L10.8366 65.5988C11.2574 65.2681 11.5819 64.8503 11.8111 64.3633L10.0014 63.5117ZM9.60904 64.0199C9.55073 64.0647 9.50161 64.1008 9.46102 64.1291C9.41979 64.1579 9.39196 64.1754 9.37579 64.1849C9.36805 64.1895 9.36549 64.1907 9.36755 64.1897C9.36928 64.1888 9.3792 64.1838 9.39619 64.177C9.41236 64.1705 9.4433 64.1591 9.48619 64.1486C9.52737 64.1385 9.59741 64.125 9.6875 64.125V66.125C9.89358 66.125 10.0579 66.0664 10.139 66.0339C10.2344 65.9958 10.3201 65.9498 10.3898 65.9088C10.5296 65.8266 10.6787 65.7203 10.8285 65.6051L9.60904 64.0199ZM9.5493 64.1346L8.20555 64.3221L8.48195 66.3029L9.8257 66.1154L9.5493 64.1346ZM8.4008 64.3141L7.30705 64.2516L7.19295 66.2484L8.2867 66.3109L8.4008 64.3141ZM7.25 64.25C6.91674 64.25 6.45352 64.2875 6.0703 64.543L7.1797 66.207C7.13689 66.2356 7.1027 66.2502 7.0855 66.2566C7.06823 66.2631 7.06204 66.2636 7.07112 66.2618C7.07989 66.2601 7.09881 66.257 7.12992 66.2544C7.1608 66.2518 7.20047 66.25 7.25 66.25V64.25ZM5.98482 64.6068C5.95893 64.6283 5.94635 64.6316 5.94403 64.6322L6.49347 66.5553C6.78282 66.4726 7.04107 66.33 7.26518 66.1432L5.98482 64.6068ZM5.94403 64.6322C5.68809 64.7054 5.43998 64.8236 5.21905 65.0004L6.46845 66.5621C6.46298 66.5665 6.46034 66.5676 6.46284 66.5663C6.46558 66.5649 6.47501 66.5605 6.49347 66.5553L5.94403 64.6322ZM5.13664 65.0741C5.21824 64.9925 5.29992 64.9572 5.34235 64.944C5.38031 64.9321 5.38686 64.9375 5.34375 64.9375V66.9375C5.69465 66.9375 6.17755 66.8617 6.55086 66.4884L5.13664 65.0741ZM5.34375 64.9375C5.43077 64.9375 5.48568 64.9554 5.49769 64.9595C5.51079 64.9641 5.50132 64.9623 5.46666 64.942C5.39442 64.8996 5.27521 64.8139 5.10429 64.661L3.77071 66.1515C3.99562 66.3527 4.22537 66.5326 4.45522 66.6674C4.66725 66.7917 4.97882 66.9375 5.34375 66.9375V64.9375ZM5.10186 64.6588C4.95492 64.5282 4.88472 64.4402 4.8568 64.3967C4.82811 64.3521 4.875 64.4038 4.875 64.5312H2.875C2.875 65.248 3.37415 65.799 3.77314 66.1537L5.10186 64.6588ZM4.875 64.5312C4.875 64.5691 4.87052 64.5195 4.93306 64.3319C4.98952 64.1625 5.08196 63.9346 5.21868 63.6416L3.40632 62.7959C3.25137 63.1279 3.12506 63.4313 3.03569 63.6994C2.9524 63.9493 2.875 64.2434 2.875 64.5312H4.875ZM5.20693 63.666C5.20666 63.6665 5.21129 63.6574 5.22386 63.635C5.23573 63.6139 5.25181 63.5861 5.27275 63.5507C5.31473 63.4799 5.37143 63.387 5.44405 63.2704C5.58912 63.0374 5.79023 62.722 6.0487 62.3223C6.56524 61.5236 7.30309 60.4002 8.26335 58.9507C10.1834 56.0524 12.9867 51.8592 16.6739 46.3701L15.0136 45.2549C11.3258 50.745 8.5197 54.9424 6.59603 57.8462C5.63441 59.2977 4.8918 60.4283 4.36927 61.2363C3.86698 62.013 3.52757 62.5525 3.41807 62.7715L5.20693 63.666ZM15.8438 44.8125H15.25V46.8125H15.8438V44.8125ZM15.25 44.8125C14.609 44.8125 14.2841 44.7208 14.153 44.6504C14.1024 44.6232 14.1151 44.6175 14.1369 44.6525C14.1604 44.6905 14.1562 44.7141 14.1562 44.6875H12.1562C12.1562 45.0359 12.2393 45.3876 12.4373 45.7069C12.6336 46.0232 12.908 46.2518 13.2064 46.4121C13.7732 46.7167 14.4952 46.8125 15.25 46.8125V44.8125ZM14.1562 44.6875C14.1562 44.2382 14.3509 43.7079 14.9247 43.082L13.4503 41.7305C12.6491 42.6046 12.1562 43.5951 12.1562 44.6875H14.1562ZM14.9238 43.0829C15.534 42.4189 15.9951 42.25 16.3125 42.25V40.25C15.2132 40.25 14.2577 40.8519 13.4512 41.7296L14.9238 43.0829ZM16.3125 42.25C16.9633 42.25 17.6953 42.3075 18.5115 42.427L18.801 40.448C17.9089 40.3175 17.0784 40.25 16.3125 40.25V42.25ZM19.4842 41.9983C23.4233 36.1834 26.46 31.6129 28.5917 28.29L26.9083 27.21C24.79 30.5121 21.7642 35.0666 17.8283 40.8767L19.4842 41.9983ZM27.0652 27.0212C24.7384 29.2076 22.6809 30.1562 20.875 30.1562V32.1562C23.4024 32.1562 25.9282 30.834 28.4348 28.4788L27.0652 27.0212ZM20.875 30.1562C20.087 30.1562 19.5573 29.9023 19.1671 29.4448L17.6454 30.7427C18.4635 31.7019 19.5796 32.1562 20.875 32.1562V30.1562ZM19.1763 29.4557C18.7154 28.8995 18.5 28.3005 18.5 27.625H16.5C16.5 28.7829 16.8888 29.8297 17.6362 30.7318L19.1763 29.4557ZM18.5 27.625C18.5 26.8783 18.684 26.3617 18.9738 25.9928L17.4012 24.7572C16.7743 25.555 16.5 26.5384 16.5 27.625H18.5ZM18.9602 26.0097C19.3948 25.4807 19.7535 25.1851 20.0265 25.0421L19.0985 23.2704C18.4965 23.5857 17.9385 24.1026 17.4148 24.7403L18.9602 26.0097ZM20.0265 25.0421C20.2262 24.9375 20.3722 24.8712 20.4718 24.8334C20.521 24.8148 20.5477 24.8074 20.5558 24.8054C20.568 24.8024 20.534 24.8125 20.4688 24.8125V22.8125C20.1977 22.8125 19.941 22.8957 19.7625 22.9634C19.56 23.0402 19.3363 23.1459 19.0985 23.2704L20.0265 25.0421ZM20.4688 24.8125C20.3979 24.8125 20.1612 24.7941 19.9491 24.5821C19.7371 24.3701 19.7188 24.1333 19.7188 24.0625H21.7188C21.7188 23.825 21.6587 23.4632 21.3634 23.1679C21.068 22.8725 20.7062 22.8125 20.4688 22.8125V24.8125ZM19.7701 23.7463L19.5201 24.4963L21.4174 25.1287L21.6674 24.3787L19.7701 23.7463ZM19.4688 24.8125C19.4688 25.6363 20.154 25.9804 20.4951 26.0915C20.8724 26.2144 21.3363 26.25 21.8125 26.25V24.25C21.6138 24.25 21.4553 24.2418 21.3325 24.2285C21.2062 24.2148 21.1392 24.1979 21.1143 24.1898C21.081 24.1789 21.1562 24.1954 21.2515 24.2885C21.304 24.3398 21.3619 24.414 21.4055 24.5132C21.4496 24.6139 21.4688 24.7172 21.4688 24.8125H19.4688ZM21.8125 26.25C23.0052 26.25 24.4603 25.6256 26.0835 24.6348L25.0415 22.9277C23.4563 23.8953 22.4115 24.25 21.8125 24.25V26.25ZM26.0915 24.6299C27.698 23.6284 29.2733 22.6374 30.8174 21.6566L29.7451 19.9684C28.2059 20.946 26.6354 21.9341 25.0335 22.9326L26.0915 24.6299ZM30.8254 21.6515C31.5687 21.1694 32.1921 20.8257 32.7016 20.6054C33.2241 20.3794 33.5607 20.3125 33.75 20.3125V18.3125C33.1684 18.3125 32.5415 18.4956 31.9078 18.7696C31.261 19.0493 30.5355 19.4556 29.7371 19.9735L30.8254 21.6515ZM33.75 20.3125C34.1017 20.3125 34.3521 20.3344 34.5188 20.3657C34.7072 20.401 34.6942 20.4311 34.6168 20.3677L35.8832 18.8198C35.5766 18.5689 35.1991 18.4584 34.8874 18.3999C34.5542 18.3375 34.1691 18.3125 33.75 18.3125V20.3125ZM34.6953 20.4258C34.9851 20.619 35.2866 20.785 35.59 20.8862L36.2225 18.9888C36.1509 18.965 36.0149 18.9018 35.8047 18.7617L34.6953 20.4258ZM35.7101 20.9181C35.7554 20.9271 35.7789 20.9362 35.7867 20.9396C35.7937 20.9427 35.7839 20.9394 35.7661 20.9245L37.0464 19.388C36.7602 19.1495 36.4257 19.0216 36.1024 18.9569L35.7101 20.9181ZM35.7661 20.9245C35.7708 20.9284 35.7938 20.9486 35.8243 21.0097L37.6132 20.1153C37.4771 19.8431 37.2917 19.5924 37.0464 19.388L35.7661 20.9245ZM35.8505 21.0586C36.0241 21.3625 36.2914 21.6214 36.5543 21.8365L37.8207 20.2885C37.7308 20.215 37.6687 20.1564 37.628 20.1129C37.5855 20.0677 37.5789 20.0522 37.587 20.0664L35.8505 21.0586ZM36.5543 21.8365C36.5586 21.84 36.5566 21.839 36.5516 21.8327C36.5464 21.8261 36.5408 21.8173 36.5362 21.8073C36.5317 21.7974 36.5301 21.7907 36.5299 21.7894C36.5297 21.7886 36.5312 21.7956 36.5312 21.8125H38.5312C38.5312 21.2192 38.2964 20.6777 37.8207 20.2885L36.5543 21.8365ZM36.5312 21.8125C36.5312 21.9365 36.5011 22.0472 36.4296 22.1634L38.1329 23.2116C38.3948 22.7861 38.5312 22.3135 38.5312 21.8125H36.5312ZM36.4472 22.1358C33.7964 26.1432 30.5426 31.1909 26.6865 37.2773L28.376 38.3477C32.2282 32.2674 35.4744 27.2318 38.1153 23.2392L36.4472 22.1358ZM27.9927 38.6997C33.1905 35.996 39.1214 32.5435 45.7831 28.3461L44.7169 26.6539C38.0869 30.8315 32.2053 34.254 27.0698 36.9253L27.9927 38.6997ZM45.785 28.3449C49.1117 26.2383 51.6845 24.5582 53.4975 23.3075C54.4031 22.6828 55.129 22.1585 55.6682 21.7374C56.1702 21.3454 56.6106 20.9683 56.8419 20.648L55.2206 19.477C55.2224 19.4745 55.2096 19.4921 55.1709 19.5325C55.134 19.5712 55.0826 19.6213 55.0136 19.6838C54.875 19.8094 54.6848 19.9677 54.4373 20.161C53.9427 20.5473 53.2532 21.0464 52.3618 21.6612C50.5811 22.8897 48.0341 24.5534 44.715 26.6551L45.785 28.3449ZM56.8887 20.577C56.881 20.5899 56.8445 20.6432 56.7648 20.6901C56.6825 20.7385 56.6051 20.75 56.5625 20.75V18.75C55.9571 18.75 55.4663 19.0605 55.1738 19.548L56.8887 20.577ZM61.3438 35.5L60.6598 36.2295L60.666 36.2353L60.6722 36.241L61.3438 35.5ZM62.4688 28.9375L63.1759 29.6446L63.181 29.6394L62.4688 28.9375ZM68.375 24.875L68.8252 25.768L68.828 25.7665L68.375 24.875ZM95.5312 20.6875L95.2814 21.6558L95.2912 21.6583L95.5312 20.6875ZM100.062 22.5L99.5041 23.3296L99.5133 23.3357L99.5225 23.3417L100.062 22.5ZM102.781 24.9062L101.997 25.5265L101.997 25.527L102.781 24.9062ZM103.062 34.2812L103.917 34.8005L103.062 34.2812ZM99.1562 38.6875L99.7822 39.4674L99.7834 39.4664L99.1562 38.6875ZM93.6875 42.25L94.1556 43.1337L94.1595 43.1316L93.6875 42.25ZM81.3125 46.75L81.0995 45.7729L79.3399 46.1566L80.5958 47.4474L81.3125 46.75ZM86.0625 52.5625L85.2734 53.1768L85.278 53.1827L86.0625 52.5625ZM92.7188 60.3125L91.9974 61.005L92.001 61.0088L92.7188 60.3125ZM97.4062 63.4375V64.4375H97.5824L97.748 64.3773L97.4062 63.4375ZM98.4375 63.0625V62.0625H98.2613L98.0958 62.1227L98.4375 63.0625ZM97.625 64.875L96.8826 64.205L96.8817 64.206L97.625 64.875ZM82.0938 57.25L81.3003 57.8587L81.3044 57.8639L82.0938 57.25ZM78.0938 51.9062L77.285 52.4944L77.2879 52.4983L78.0938 51.9062ZM75 47.7188L75.7918 47.1079L74.9138 45.9698L74.152 47.1888L75 47.7188ZM73.4062 50.2188L74.2444 50.7642L74.2483 50.7582L73.4062 50.2188ZM69.8125 55.875L70.658 56.409L70.6621 56.4024L69.8125 55.875ZM68.0625 58.75L68.9232 59.259L68.927 59.2526L68.9307 59.2461L68.0625 58.75ZM65.6562 63.0938L64.7541 62.6623L64.7503 62.6703L64.7466 62.6785L65.6562 63.0938ZM63.4688 64.5312L63.4402 65.5308L63.4545 65.5312H63.4688V64.5312ZM62.375 64.5L62.4036 63.5004L62.3726 63.4995L62.3417 63.5006L62.375 64.5ZM61.4375 64.5312V65.5312H61.4542L61.4708 65.5307L61.4375 64.5312ZM60.5312 59.4375L59.6247 59.0153L59.6222 59.0208L60.5312 59.4375ZM71.6562 42.5312L72.4801 43.0981L72.4807 43.0973L71.6562 42.5312ZM82.75 26.9062L83.4347 27.6351L83.4405 27.6297L83.4461 27.6242L82.75 26.9062ZM84.2812 25.7812L84.5238 26.7514L84.7197 26.7024L84.8812 26.5812L84.2812 25.7812ZM84.7812 25.5L84.9456 24.5136L84.864 24.5H84.7812V25.5ZM85.3438 25.5938L85.1794 26.5801L85.3486 26.6083L85.5175 26.5785L85.3438 25.5938ZM85.875 25.5V24.5H85.7874L85.7012 24.5152L85.875 25.5ZM86.375 25.75L85.6224 26.4085L85.6443 26.4336L85.6679 26.4571L86.375 25.75ZM86.6875 26.0312L87.2813 25.2267L87.2621 25.2125L87.2422 25.1992L86.6875 26.0312ZM87.6562 28.9375L86.78 28.4556L86.7756 28.4636L86.7713 28.4718L87.6562 28.9375ZM85.875 31.6562L85.0524 31.0877L85.875 31.6562ZM82 37.1875L81.1832 36.6105L81.1822 36.612L82 37.1875ZM78.5625 42.0938L77.7409 41.5237L76.5837 43.1915L78.6112 43.0926L78.5625 42.0938ZM91.4375 37.0938L91.9766 37.936L91.9787 37.9347L91.4375 37.0938ZM96.8125 32.7188L96.0865 32.031L96.0863 32.0313L96.8125 32.7188ZM98.0938 26.9062L97.466 27.6847L97.4737 27.6909L97.4816 27.697L98.0938 26.9062ZM95.6562 25.6875L95.3708 26.6459L95.6562 25.6875ZM79.6875 26.4062L79.4163 25.4437L79.6875 26.4062ZM71.4375 29.4688L71.9223 30.3434L71.9302 30.3389L71.4375 29.4688ZM67.6875 31.9375L68.3417 32.6939L68.3474 32.6889L68.3531 32.6838L67.6875 31.9375ZM68.3125 33.25L68.8425 34.098L68.861 34.0864L68.879 34.074L68.3125 33.25ZM68.9062 33.9062C68.8736 33.9062 68.6761 33.8912 68.508 33.7007C68.3609 33.534 68.375 33.3859 68.375 33.4375H70.375C70.375 33.1349 70.311 32.7212 70.0077 32.3774C69.6833 32.0098 69.2514 31.9062 68.9062 31.9062V33.9062ZM68.375 33.4375C68.375 33.3562 68.393 33.2751 68.4256 33.2034C68.4568 33.1346 68.4931 33.0927 68.5116 33.0741L69.9259 34.4884C70.1815 34.2327 70.375 33.8747 70.375 33.4375H68.375ZM68.5116 33.0741C66.9326 34.6532 65.1602 35.4062 63.1562 35.4062V37.4062C65.7357 37.4062 68.0049 36.4093 69.9259 34.4884L68.5116 33.0741ZM63.1562 35.4062C62.9822 35.4062 62.6115 35.2994 62.0153 34.759L60.6722 36.241C61.4093 36.909 62.2469 37.4062 63.1562 37.4062V35.4062ZM62.0277 34.7705C61.615 34.3836 61.3438 33.7838 61.3438 32.8125H59.3438C59.3438 34.1745 59.7391 35.3664 60.6598 36.2295L62.0277 34.7705ZM61.3438 32.8125C61.3438 32.0473 61.8212 30.9992 63.1759 29.6446L61.7616 28.2304C60.283 29.7091 59.3438 31.2444 59.3438 32.8125H61.3438ZM63.181 29.6394C64.4975 28.3035 66.3658 27.0078 68.8252 25.7679L67.9248 23.9821C65.3425 25.2839 63.2733 26.6965 61.7565 28.2356L63.181 29.6394ZM68.828 25.7665C71.288 24.5163 74.3833 23.3926 78.13 22.4044L77.62 20.4706C73.7834 21.4824 70.5453 22.6503 67.922 23.9835L68.828 25.7665ZM78.13 22.4044C81.8617 21.4202 85.1801 20.9375 88.0938 20.9375V18.9375C84.9657 18.9375 81.4716 19.4548 77.62 20.4706L78.13 22.4044ZM88.0938 20.9375C91.0684 20.9375 93.4556 21.1846 95.2814 21.6558L95.7811 19.7192C93.7319 19.1904 91.1607 18.9375 88.0938 18.9375V20.9375ZM95.2912 21.6583C97.1687 22.1226 98.555 22.6907 99.5041 23.3296L100.621 21.6704C99.4034 20.8509 97.7688 20.2107 95.7713 19.7167L95.2912 21.6583ZM99.5225 23.3417C100.547 23.999 101.367 24.7293 101.997 25.5265L103.566 24.286C102.779 23.2915 101.786 22.4177 100.602 21.6583L99.5225 23.3417ZM101.997 25.527C103.077 26.8911 103.562 28.2098 103.562 29.5H105.562C105.562 27.6652 104.86 25.9214 103.565 24.2855L101.997 25.527ZM103.562 29.5C103.562 30.818 103.136 32.2339 102.208 33.762L103.917 34.8005C104.989 33.0369 105.562 31.2654 105.562 29.5H103.562ZM102.208 33.762C101.272 35.3021 100.049 36.6846 98.5291 37.9086L99.7834 39.4664C101.472 38.1071 102.853 36.5521 103.917 34.8005L102.208 33.762ZM98.5303 37.9076C97.0017 39.1346 95.2317 40.289 93.2155 41.3684L94.1595 43.1316C96.2683 42.0026 98.1442 40.7821 99.7822 39.4674L98.5303 37.9076ZM93.2194 41.3663C89.4481 43.3641 85.4093 44.8334 81.0995 45.7729L81.5255 47.7271C86.0074 46.75 90.2185 45.2193 94.1556 43.1337L93.2194 41.3663ZM80.5958 47.4474C81.2992 48.1703 82.8462 50.059 85.2734 53.1768L86.8516 51.9482C84.4455 48.8576 82.8258 46.8713 82.0292 46.0526L80.5958 47.4474ZM85.278 53.1827C87.7288 56.2828 89.9689 58.8921 91.9974 61.005L93.4401 59.62C91.4686 57.5663 89.2712 55.0088 86.847 51.9423L85.278 53.1827ZM92.001 61.0088C93.0371 62.077 93.9885 62.9129 94.8515 63.4883C95.6945 64.0503 96.5618 64.4375 97.4062 64.4375V62.4375C97.1466 62.4375 96.6805 62.3039 95.961 61.8242C95.2615 61.3579 94.4212 60.6314 93.4365 59.6162L92.001 61.0088ZM97.748 64.3773L98.7792 64.0023L98.0958 62.1227L97.0645 62.4977L97.748 64.3773ZM98.4375 64.0625C98.4299 64.0625 98.388 64.0621 98.3248 64.0448C98.2594 64.027 98.1618 63.9884 98.0621 63.9068C97.8274 63.7148 97.7812 63.463 97.7812 63.3438H99.7812C99.7812 63.037 99.6778 62.6446 99.3286 62.3589C99.0177 62.1046 98.6629 62.0625 98.4375 62.0625V64.0625ZM97.7812 63.3438C97.7812 63.1906 97.8211 63.0863 97.8288 63.066C97.841 63.0341 97.8487 63.023 97.8399 63.0385C97.8222 63.0696 97.7787 63.137 97.6941 63.249C97.5276 63.4695 97.2613 63.7855 96.8826 64.205L98.3674 65.545C98.7596 65.1104 99.0714 64.744 99.2902 64.4542C99.3984 64.311 99.4994 64.166 99.578 64.0279C99.6174 63.9588 99.6613 63.8738 99.6975 63.7788C99.7294 63.6953 99.7812 63.5386 99.7812 63.3438H97.7812ZM96.8817 64.206C96.1515 65.0173 95.5397 65.6051 95.0423 65.9919L96.2702 67.5706C96.8978 67.0824 97.5985 66.3993 98.3683 65.544L96.8817 64.206ZM95.0423 65.9919C94.7107 66.2498 94.1826 66.4375 93.3438 66.4375V68.4375C94.4632 68.4375 95.4768 68.1877 96.2702 67.5706L95.0423 65.9919ZM93.3438 66.4375C92.7027 66.4375 91.8227 66.1161 90.669 65.2361L89.456 66.8264C90.7607 67.8214 92.0681 68.4375 93.3438 68.4375V66.4375ZM90.669 65.2361C89.5152 64.3562 88.2228 63.0896 86.7918 61.4132L85.2707 62.7118C86.7563 64.4521 88.1514 65.8313 89.456 66.8264L90.669 65.2361ZM86.7918 61.4132C85.3416 59.7145 84.0389 58.1222 82.8831 56.6361L81.3044 57.8639C82.4819 59.3778 83.8042 60.9939 85.2707 62.7118L86.7918 61.4132ZM82.8872 56.6413C81.7258 55.1274 80.3968 53.3519 78.8996 51.3142L77.2879 52.4983C78.7907 54.5439 80.1284 56.3309 81.3003 57.8587L82.8872 56.6413ZM78.9025 51.3181C77.4034 49.2568 76.3642 47.8499 75.7918 47.1079L74.2082 48.3296C74.7608 49.0459 75.7841 50.4307 77.285 52.4944L78.9025 51.3181ZM74.152 47.1888C73.9473 47.5163 73.4195 48.3442 72.5642 49.6793L74.2483 50.7582C75.1013 49.4266 75.636 48.5879 75.848 48.2487L74.152 47.1888ZM72.5681 49.6733C71.7136 50.9863 71.0858 51.9594 70.6864 52.5899L72.3761 53.6601C72.7684 53.0406 73.3906 52.0762 74.2444 50.7642L72.5681 49.6733ZM70.6864 52.5899C70.2881 53.2189 69.7133 54.1386 68.9629 55.3476L70.6621 56.4024C71.4117 55.1947 71.9827 54.2811 72.3761 53.6601L70.6864 52.5899ZM68.967 55.341C68.2136 56.5339 67.6214 57.5063 67.1943 58.2539L68.9307 59.2461C69.3369 58.5354 69.9114 57.5911 70.658 56.409L68.967 55.341ZM67.2018 58.241C66.0536 60.1823 65.2326 61.6619 64.7541 62.6623L66.5584 63.5252C66.9966 62.6089 67.7797 61.1927 68.9232 59.259L67.2018 58.241ZM64.7466 62.6785C64.5897 63.0221 64.4094 63.2196 64.2321 63.3362C64.0568 63.4514 63.8179 63.5312 63.4688 63.5312V65.5312C64.1405 65.5312 64.7766 65.3716 65.3304 65.0076C65.8823 64.6449 66.2853 64.1237 66.5659 63.509L64.7466 62.6785ZM63.4973 63.5317L62.4036 63.5004L62.3464 65.4996L63.4402 65.5308L63.4973 63.5317ZM62.3417 63.5006L61.4042 63.5318L61.4708 65.5307L62.4083 65.4994L62.3417 63.5006ZM61.4375 63.5312C60.9071 63.5312 60.6956 63.4164 60.627 63.3588C60.592 63.3295 60.5 63.2431 60.5 62.9062H58.5C58.5 63.6527 58.7309 64.3788 59.3418 64.8912C59.919 65.3753 60.6762 65.5312 61.4375 65.5312V63.5312ZM60.5 62.9062C60.5 62.3214 60.7635 61.3309 61.4403 59.8542L59.6222 59.0208C58.924 60.5441 58.5 61.8661 58.5 62.9062H60.5ZM61.4378 59.8597C61.754 59.1808 62.8097 57.4609 64.6791 54.62C66.5277 51.8108 69.1274 47.9709 72.4801 43.0981L70.8324 41.9644C67.4768 46.8416 64.8681 50.6944 63.0084 53.5206C61.1695 56.3151 60.0169 58.1734 59.6247 59.0153L61.4378 59.8597ZM72.4807 43.0973C75.8339 38.2132 78.432 34.4735 80.2763 31.8758C81.1989 30.5764 81.9296 29.5674 82.4703 28.8456C83.037 28.0891 83.3403 27.7237 83.4347 27.6351L82.0653 26.1774C81.8159 26.4117 81.3992 26.9396 80.8696 27.6465C80.3139 28.3883 79.5719 29.4132 78.6456 30.718C76.792 33.3286 74.1869 37.0785 70.8318 41.9652L72.4807 43.0973ZM83.4461 27.6242C83.772 27.3082 84.0354 27.0816 84.2405 26.9309C84.4643 26.7665 84.5486 26.7452 84.5238 26.7514L84.0387 24.8111C83.6805 24.9007 83.343 25.1085 83.0564 25.3191C82.751 25.5434 82.4155 25.8376 82.0539 26.1883L83.4461 27.6242ZM84.8812 26.5812C84.9335 26.542 84.9771 26.511 85.0126 26.4871C85.0487 26.4627 85.072 26.4487 85.084 26.4419C85.0984 26.4338 85.0866 26.4418 85.0542 26.4539C85.0371 26.4603 85.0067 26.4708 84.9656 26.48C84.9256 26.489 84.8619 26.5 84.7812 26.5V24.5C84.4544 24.5 84.1894 24.6504 84.1035 24.6987C83.9659 24.7762 83.8223 24.8755 83.6813 24.9813L84.8812 26.5812ZM84.6169 26.4864L85.1794 26.5801L85.5081 24.6074L84.9456 24.5136L84.6169 26.4864ZM85.5175 26.5785L86.0488 26.4848L85.7012 24.5152L85.17 24.609L85.5175 26.5785ZM85.875 26.5C85.8145 26.5 85.7498 26.4851 85.6934 26.4569C85.6409 26.4307 85.6192 26.4048 85.6224 26.4085L87.1276 25.0915C86.8297 24.751 86.4037 24.5 85.875 24.5V26.5ZM85.6679 26.4571C85.8064 26.5957 85.9761 26.7588 86.1328 26.8633L87.2422 25.1992C87.2612 25.2119 87.2692 25.2189 87.2634 25.2141C87.2589 25.2104 87.2485 25.2017 87.2315 25.1864C87.1969 25.1553 87.1478 25.1086 87.0821 25.0429L85.6679 26.4571ZM86.0937 26.8358C86.4963 27.133 86.75 27.372 86.8939 27.5502C87.0486 27.7417 87 27.7669 87 27.6562H89C89 27.1081 88.7327 26.6437 88.4498 26.2935C88.1563 25.9301 87.7537 25.5753 87.2813 25.2267L86.0937 26.8358ZM87 27.6562C87 27.9108 86.9352 28.1734 86.78 28.4556L88.5325 29.4194C88.8356 28.8683 89 28.2767 89 27.6562H87ZM86.7713 28.4718C86.5972 28.8026 86.0435 29.6537 85.0524 31.0877L86.6976 32.2248C87.6648 30.8254 88.2986 29.8641 88.5412 29.4032L86.7713 28.4718ZM85.0524 31.0877C84.076 32.5004 82.7865 34.341 81.1832 36.6105L82.8168 37.7645C84.4219 35.4923 85.7157 33.6455 86.6976 32.2248L85.0524 31.0877ZM81.1822 36.612C79.5987 38.8622 78.4513 40.4999 77.7409 41.5237L79.3841 42.6638C80.0904 41.6459 81.2346 40.0128 82.8178 37.763L81.1822 36.612ZM78.6112 43.0926C80.4714 43.0018 82.6383 42.4405 85.0901 41.4597L84.3474 39.6028C82.0075 40.5387 80.0702 41.019 78.5138 41.0949L78.6112 43.0926ZM85.0901 41.4597C87.5419 40.479 89.8379 39.3047 91.9766 37.936L90.8984 36.2515C88.8704 37.5494 86.6872 38.6668 84.3474 39.6028L85.0901 41.4597ZM91.9787 37.9347C94.1398 36.5439 95.9962 35.0357 97.5387 33.4062L96.0863 32.0313C94.6705 33.5268 92.9436 34.9353 90.8963 36.2528L91.9787 37.9347ZM97.5385 33.4065C99.0782 31.7812 100.062 30.1624 100.062 28.5938H98.0625C98.0625 29.3585 97.5468 30.4897 96.0865 32.031L97.5385 33.4065ZM100.062 28.5938C100.062 27.5691 99.5149 26.7418 98.7059 26.1155L97.4816 27.697C97.9643 28.0707 98.0625 28.3684 98.0625 28.5938H100.062ZM98.7215 26.1278C97.9539 25.5088 97.0176 25.0496 95.9417 24.7291L95.3708 26.6459C96.2532 26.9087 96.942 27.262 97.466 27.6847L98.7215 26.1278ZM95.9417 24.7291C93.8742 24.1133 91.5673 23.8125 89.0312 23.8125V25.8125C91.4118 25.8125 93.5216 26.0951 95.3708 26.6459L95.9417 24.7291ZM89.0312 23.8125C86.4435 23.8125 83.2297 24.3692 79.4163 25.4437L79.9587 27.3688C83.6869 26.3183 86.7023 25.8125 89.0312 25.8125V23.8125ZM79.4163 25.4437C75.6276 26.5113 72.7824 27.558 70.9448 28.5986L71.9302 30.3389C73.5509 29.4212 76.2058 28.4262 79.9587 27.3688L79.4163 25.4437ZM70.9528 28.5941C69.2062 29.5621 67.8776 30.428 67.0219 31.1912L68.3531 32.6838C69.0391 32.072 70.2105 31.2921 71.9222 30.3434L70.9528 28.5941ZM67.0333 31.1811C66.6297 31.5302 66.2925 31.8564 66.0479 32.154C65.9255 32.3028 65.8078 32.4666 65.7167 32.6414C65.6306 32.8065 65.5312 33.0514 65.5312 33.3438H67.5312C67.5312 33.5007 67.48 33.5854 67.4903 33.5657C67.4956 33.5555 67.5224 33.5097 67.5927 33.4242C67.7335 33.2529 67.9744 33.0114 68.3417 32.6939L67.0333 31.1811ZM65.5312 33.3438C65.5312 33.647 65.6501 33.9232 65.8462 34.1291C66.0202 34.3118 66.2194 34.4035 66.3572 34.4517C66.6239 34.545 66.9168 34.5625 67.1562 34.5625V32.5625C66.979 32.5625 66.9595 32.5435 67.0179 32.564C67.0514 32.5757 67.1725 32.6218 67.2944 32.7498C67.4385 32.901 67.5312 33.1134 67.5312 33.3438H65.5312ZM67.1562 34.5625C67.7593 34.5625 68.3327 34.4166 68.8425 34.098L67.7825 32.402C67.6257 32.5 67.4282 32.5625 67.1562 32.5625V34.5625ZM68.879 34.074C69.0379 33.9648 69.1461 33.8958 69.212 33.8576C69.2462 33.8378 69.2517 33.8365 69.2367 33.843C69.229 33.8464 69.2022 33.8581 69.1614 33.8702C69.1403 33.8764 69.1092 33.8847 69.0704 33.8917C69.0327 33.8985 68.9761 33.9062 68.9062 33.9062V31.9062C68.6624 31.9062 68.4691 31.9958 68.4312 32.0124C68.3511 32.0477 68.2746 32.0893 68.2099 32.1268C68.0779 32.2032 67.9204 32.306 67.746 32.426L68.879 34.074Z"/><defs><linearGradient id="paint0_linear" x1="56" x2="56" y1="0" y2="106.5" gradientUnits="userSpaceOnUse"><stop offset=".633" stop-color="#fff"/><stop offset="1" stop-opacity=".46"/></linearGradient></defs></svg>