<svg xmlns="http://www.w3.org/2000/svg" width="237" height="49" fill="none" viewBox="0 0 237 49"><path fill="#000" d="M53.5625 1.75L54.6875 2.0625C57.3333 2.45833 58.6562 3.25 58.6562 4.4375C58.6562 4.77083 58.5312 5.05208 58.2812 5.28125C55.4688 7.80208 51.7292 10.5208 47.0625 13.4375C39.9375 17.875 31.8542 22.1667 22.8125 26.3125C25.7708 28 29.7812 30.8021 34.8438 34.7188C41.6354 39.7396 45.8125 42.25 47.375 42.25C47.9167 42.25 48.375 42.1042 48.75 41.8125C49.1458 41.5 49.3646 41.3438 49.4062 41.3438C49.7604 41.3438 49.9375 41.5104 49.9375 41.8438C49.9375 42.1354 49.5833 42.9688 48.875 44.3438C48.1875 45.7188 47.5938 46.625 47.0938 47.0625C46.6146 47.5 45.8438 47.7188 44.7812 47.7188C43.7188 47.7188 42.3021 47.1979 40.5312 46.1562C38.7604 45.1146 36.8229 43.8125 34.7188 42.25C32.6354 40.6667 30.5521 39.0625 28.4688 37.4375C23.1979 33.375 19.6458 30.9688 17.8125 30.2188C11.3958 40.3438 8.09375 45.5833 7.90625 45.9375C7.73958 46.2917 7.51042 46.5833 7.21875 46.8125C6.94792 47.0208 6.77083 47.125 6.6875 47.125L5.34375 47.3125L4.25 47.25C3.95833 47.25 3.75 47.2917 3.625 47.375C3.5 47.4792 3.36458 47.5521 3.21875 47.5938C3.07292 47.6354 2.94792 47.6979 2.84375 47.7812C2.73958 47.8854 2.57292 47.9375 2.34375 47.9375C2.13542 47.9375 1.83333 47.7604 1.4375 47.4062C1.0625 47.0729 0.875 46.7812 0.875 46.5312C0.875 46.2812 1.02083 45.8438 1.3125 45.2188C1.625 44.5938 5.46875 38.7917 12.8438 27.8125H12.25C10.8542 27.8125 10.1562 27.4375 10.1562 26.6875C10.1562 25.9167 10.5 25.1562 11.1875 24.4062C11.8958 23.6354 12.6042 23.25 13.3125 23.25C14.0208 23.25 14.8021 23.3125 15.6562 23.4375C19.5938 17.625 22.625 13.0625 24.75 9.75C22.3333 12.0208 20.0417 13.1562 17.875 13.1562C16.8333 13.1562 16.0104 12.8021 15.4062 12.0938C14.8021 11.3646 14.5 10.5417 14.5 9.625C14.5 8.70833 14.7292 7.95833 15.1875 7.375C15.6667 6.79167 16.125 6.38542 16.5625 6.15625C17 5.92708 17.3021 5.8125 17.4688 5.8125C17.6354 5.8125 17.7188 5.89583 17.7188 6.0625L17.4688 6.8125C17.4688 7.10417 17.9167 7.25 18.8125 7.25C19.7083 7.25 20.9583 6.76042 22.5625 5.78125C24.1667 4.78125 25.7396 3.79167 27.2812 2.8125C28.8229 1.8125 29.9792 1.3125 30.75 1.3125C31.5208 1.3125 32.0208 1.40625 32.25 1.59375C32.5 1.76042 32.7188 1.875 32.9062 1.9375C33.1146 1.97917 33.2812 2.05208 33.4062 2.15625C33.5312 2.26042 33.6354 2.39583 33.7188 2.5625C33.8021 2.70833 33.9583 2.875 34.1875 3.0625C34.4167 3.25 34.5312 3.5 34.5312 3.8125C34.5312 4.125 34.4479 4.41667 34.2812 4.6875C31.6354 8.6875 28.3854 13.7292 24.5312 19.8125C29.6979 17.125 35.6042 13.6875 42.25 9.5C48.8958 5.29167 52.4896 2.8125 53.0312 2.0625C53.1562 1.85417 53.3333 1.75 53.5625 1.75ZM71.6562 23.25C73.2396 23.25 74.0312 23.7917 74.0312 24.875C74.0312 25.4583 73.8958 25.8854 73.625 26.1562C73.3542 26.4271 72.7708 27.3333 71.875 28.875C71 30.3958 70.0208 32.3542 68.9375 34.75C67.875 37.125 67.1875 39.1562 66.875 40.8438C66.8125 41.0521 66.7812 41.3438 66.7812 41.7188C66.7812 42.8646 67.0938 43.4375 67.7188 43.4375C68.3438 43.4375 69.0833 43.1458 69.9375 42.5625C70.7917 41.9583 71.5521 41.3229 72.2188 40.6562C72.8854 39.9688 73.5312 39.2708 74.1562 38.5625C74.8021 37.8542 75.1875 37.4479 75.3125 37.3438C75.4375 37.2396 75.625 37.1875 75.875 37.1875C76.2708 37.1875 76.5104 37.4896 76.5938 38.0938C76.6771 38.6979 76.7188 39.3229 76.7188 39.9688C76.7188 40.6146 76.6562 41.0625 76.5312 41.3125C75.9271 42.5 74.5938 43.9271 72.5312 45.5938C70.4896 47.2604 68.625 48.0938 66.9375 48.0938C65.2708 48.0938 64.0417 47.5833 63.25 46.5625C62.4583 45.5417 62.0625 44.4167 62.0625 43.1875C62.0625 41.9375 62.2708 40.8438 62.6875 39.9062C60.9583 42.1562 58.9688 44.0625 56.7188 45.625C54.4896 47.1875 52.6667 47.9688 51.25 47.9688C49.8333 47.9688 48.6771 47.5417 47.7812 46.6875C46.6354 45.625 46.0625 44.1562 46.0625 42.2812C46.0625 40.3854 46.4792 38.4896 47.3125 36.5938C48.1667 34.6771 49.2812 32.9375 50.6562 31.375C52.0312 29.7917 53.5417 28.3542 55.1875 27.0625C58.6458 24.3542 61.8333 23 64.75 23C65.875 23 66.7917 23.1875 67.5 23.5625C68.2083 23.9375 68.6562 24.4062 68.8438 24.9688C69.3438 24.2188 69.7604 23.75 70.0938 23.5625C70.4479 23.3542 70.9688 23.25 71.6562 23.25ZM67.5 26.7188C63.9375 26.7188 60.25 28.6979 56.4375 32.6562C55.0833 34.0729 53.8333 35.7708 52.6875 37.75C51.5625 39.7292 51 41.0833 51 41.8125C51 42.5417 51.2083 42.9062 51.625 42.9062C52.2083 42.9062 53.8333 41.7604 56.5 39.4688C59.1667 37.1562 60.9375 35.4583 61.8125 34.375C62.7708 33.1667 64.6667 30.6146 67.5 26.7188ZM99.7812 0.09375C100.781 0.09375 101.656 0.395833 102.406 1C103.177 1.58333 103.562 2.45833 103.562 3.625C103.562 4.79167 102.917 6.625 101.625 9.125C100.333 11.6042 98.7812 14.1458 96.9688 16.75C95.1562 19.3333 93.1042 22.0833 90.8125 25C87.1875 29.625 83.7083 33.7812 80.375 37.4688C80.3542 37.7188 80.2604 38.1875 80.0938 38.875C79.9479 39.5417 79.875 40.2188 79.875 40.9062C79.875 41.5938 80.1875 42.2188 80.8125 42.7812C81.4583 43.3229 82.25 43.5938 83.1875 43.5938C84.125 43.5938 85.125 43.2604 86.1875 42.5938C87.2708 41.9271 88.2083 41.1875 89 40.375C91.0833 38.2292 92.375 37.1562 92.875 37.1562C93.375 37.1562 93.625 37.9167 93.625 39.4375V40.0625C93.625 40.875 93.4792 41.4688 93.1875 41.8438C91.4375 43.9896 89.4688 45.5938 87.2812 46.6562C85.0938 47.6979 83.0208 48.2188 81.0625 48.2188C79.1042 48.2188 77.6146 47.625 76.5938 46.4375C75.5729 45.2292 75.0625 43.5833 75.0625 41.5C75.0625 37.4375 76.1458 32.6667 78.3125 27.1875C80.5 21.6875 82.9583 17.0104 85.6875 13.1562C91.8333 4.44792 96.5312 0.09375 99.7812 0.09375ZM98.375 5.28125C98.375 4.96875 98.2708 4.8125 98.0625 4.8125C97.3333 4.8125 95.4167 6.89583 92.3125 11.0625C89.2083 15.2292 86.9583 18.5521 85.5625 21.0312C84.1875 23.5104 82.8854 26.625 81.6562 30.375C84.1146 27.4583 87.5104 22.9167 91.8438 16.75C96.1979 10.5625 98.375 6.73958 98.375 5.28125ZM122.844 23.7812L122.469 22.2812C122.469 21.4271 122.76 20.7604 123.344 20.2812C123.948 19.7812 124.698 19.5312 125.594 19.5312C127.344 19.5312 128.219 20.6458 128.219 22.875C128.219 24.4792 127.427 26.6979 125.844 29.5312C124.26 32.3438 122.385 35.0729 120.219 37.7188C118.073 40.3438 115.792 42.6354 113.375 44.5938C110.958 46.5312 109.094 47.5 107.781 47.5C106.49 47.5 105.573 47.1458 105.031 46.4375C104.49 45.7292 104.219 45.0521 104.219 44.4062C104.219 43.7396 104.25 43.1146 104.312 42.5312C104.542 40.4896 105.104 38.5417 106 36.6875C103.771 39.6042 101.375 42.2292 98.8125 44.5625C96.25 46.875 94.1042 48.0312 92.375 48.0312C91.5417 48.0312 90.875 47.7812 90.375 47.2812C89.875 46.7812 89.625 45.9375 89.625 44.75C89.625 43.5417 90.3438 41.2917 91.7812 38C93.2188 34.6875 94.5938 32.0312 95.9062 30.0312C95.4271 30.3229 95 30.4688 94.625 30.4688C94.2708 30.4688 93.875 30.2708 93.4375 29.875C93.0208 29.4583 92.8125 29.1354 92.8125 28.9062C92.8125 28.6771 92.9688 28.3438 93.2812 27.9062C93.5938 27.4688 94.7917 26.3958 96.875 24.6875C98.9583 22.9583 100.385 22.0938 101.156 22.0938C101.927 22.0938 102.656 22.2396 103.344 22.5312C104.052 22.8229 104.406 23.2292 104.406 23.75C104.406 24.25 102.958 27.2188 100.062 32.6562C97.1667 38.0938 95.7188 41.0417 95.7188 41.5C95.7188 41.5625 95.7396 41.5938 95.7812 41.5938C96.2188 41.5938 98.3958 39.3646 102.312 34.9062C106.25 30.4479 109.344 26.7812 111.594 23.9062C111.906 23.3854 112.375 23.125 113 23.125L113.281 23.1562L115 22.8125C115.271 22.8125 115.531 22.9167 115.781 23.125C116.052 23.3333 116.188 23.5208 116.188 23.6875C116.188 23.8542 115.812 24.6042 115.062 25.9375C114.333 27.2708 113.135 29.7917 111.469 33.5C109.802 37.2083 108.969 39.8125 108.969 41.3125C108.969 41.6875 109.104 41.875 109.375 41.875C110.167 41.875 111.812 40.4479 114.312 37.5938C116.833 34.7188 118.885 31.9688 120.469 29.3438C122.052 26.7188 122.844 24.8646 122.844 23.7812ZM149.656 23.25C151.24 23.25 152.031 23.7917 152.031 24.875C152.031 25.4583 151.896 25.8854 151.625 26.1562C151.354 26.4271 150.771 27.3333 149.875 28.875C149 30.3958 148.021 32.3542 146.938 34.75C145.875 37.125 145.188 39.1562 144.875 40.8438C144.812 41.0521 144.781 41.3438 144.781 41.7188C144.781 42.8646 145.094 43.4375 145.719 43.4375C146.344 43.4375 147.083 43.1458 147.938 42.5625C148.792 41.9583 149.552 41.3229 150.219 40.6562C150.885 39.9688 151.531 39.2708 152.156 38.5625C152.802 37.8542 153.188 37.4479 153.312 37.3438C153.438 37.2396 153.625 37.1875 153.875 37.1875C154.271 37.1875 154.51 37.4896 154.594 38.0938C154.677 38.6979 154.719 39.3229 154.719 39.9688C154.719 40.6146 154.656 41.0625 154.531 41.3125C153.927 42.5 152.594 43.9271 150.531 45.5938C148.49 47.2604 146.625 48.0938 144.938 48.0938C143.271 48.0938 142.042 47.5833 141.25 46.5625C140.458 45.5417 140.062 44.4167 140.062 43.1875C140.062 41.9375 140.271 40.8438 140.688 39.9062C138.958 42.1562 136.969 44.0625 134.719 45.625C132.49 47.1875 130.667 47.9688 129.25 47.9688C127.833 47.9688 126.677 47.5417 125.781 46.6875C124.635 45.625 124.062 44.1562 124.062 42.2812C124.062 40.3854 124.479 38.4896 125.312 36.5938C126.167 34.6771 127.281 32.9375 128.656 31.375C130.031 29.7917 131.542 28.3542 133.188 27.0625C136.646 24.3542 139.833 23 142.75 23C143.875 23 144.792 23.1875 145.5 23.5625C146.208 23.9375 146.656 24.4062 146.844 24.9688C147.344 24.2188 147.76 23.75 148.094 23.5625C148.448 23.3542 148.969 23.25 149.656 23.25ZM145.5 26.7188C141.938 26.7188 138.25 28.6979 134.438 32.6562C133.083 34.0729 131.833 35.7708 130.688 37.75C129.562 39.7292 129 41.0833 129 41.8125C129 42.5417 129.208 42.9062 129.625 42.9062C130.208 42.9062 131.833 41.7604 134.5 39.4688C137.167 37.1562 138.938 35.4583 139.812 34.375C140.771 33.1667 142.667 30.6146 145.5 26.7188ZM177.594 2.40625C173.198 9.01042 168.917 15.9167 164.75 23.125C165.708 22.625 166.781 22.2708 167.969 22.0625C169.177 21.8333 170.021 21.7188 170.5 21.7188C171 21.7188 171.427 21.7396 171.781 21.7812C172.135 21.8021 172.583 21.9167 173.125 22.125C173.688 22.3125 174.167 22.5833 174.562 22.9375C175.521 23.7917 176 25 176 26.5625C176 28.125 175.573 29.8438 174.719 31.7188C173.885 33.5729 172.74 35.4375 171.281 37.3125C169.844 39.1875 168.26 40.9375 166.531 42.5625C164.823 44.1667 162.979 45.4792 161 46.5C159.021 47.5208 157.177 48.0312 155.469 48.0312C154.677 48.0312 153.76 47.5208 152.719 46.5C151.698 45.4792 151.188 44.1354 151.188 42.4688C151.188 40.8021 151.906 38.2188 153.344 34.7188C154.781 31.2188 156.521 27.6667 158.562 24.0625C160.625 20.4375 162.719 16.9062 164.844 13.4688C166.99 10.0312 168.812 7.21875 170.312 5.03125C171.812 2.84375 172.729 1.58333 173.062 1.25C173.396 0.916667 174 0.635417 174.875 0.40625C175.771 0.177083 176.542 0.0729167 177.188 0.09375C177.833 0.09375 178.156 0.385417 178.156 0.96875C178.156 1.34375 177.969 1.82292 177.594 2.40625ZM169.156 32.4062C170.01 30.9062 170.438 29.5417 170.438 28.3125C170.438 27.0833 170.042 26.4688 169.25 26.4688C168.479 26.4688 167.281 26.8125 165.656 27.5C164.052 28.1667 163.135 28.5 162.906 28.5C162.677 28.5 162.375 28.3125 162 27.9375C157.938 35.25 155.906 39.9167 155.906 41.9375C155.906 42.875 156.208 43.3438 156.812 43.3438C158.25 43.3438 160.323 42.1458 163.031 39.75C165.74 37.3333 167.781 34.8854 169.156 32.4062ZM197.25 23.625C197.25 25 196.688 26.2083 195.562 27.25C194.458 28.2917 193.198 28.8125 191.781 28.8125C191.323 28.8125 191.021 28.7083 190.875 28.5C190.729 28.2708 190.656 27.9792 190.656 27.625C190.656 27.2708 190.698 26.9271 190.781 26.5938C190.031 26.8438 189.198 27.2292 188.281 27.75C187.365 28.2708 186.24 29.0417 184.906 30.0625C183.573 31.0833 182.906 31.8438 182.906 32.3438C182.906 32.5104 183.146 32.5938 183.625 32.5938C184.125 32.5938 184.885 32.4271 185.906 32.0938C186.927 31.7396 187.635 31.5625 188.031 31.5625C188.448 31.5625 188.719 31.5833 188.844 31.625C189.115 31.7708 189.406 32.0938 189.719 32.5938C190.031 33.0729 190.188 33.4583 190.188 33.75C190.188 34.0208 189.917 34.3854 189.375 34.8438C188.833 35.3021 188.219 35.6562 187.531 35.9062C186.844 36.1354 186.385 36.3125 186.156 36.4375C181.76 38.8958 179.562 40.5833 179.562 41.5C179.562 43.125 180.948 43.9375 183.719 43.9375C185.49 43.9375 187.271 43.375 189.062 42.25C190.583 41.2917 191.948 40.3229 193.156 39.3438C194.385 38.3438 195.156 37.7292 195.469 37.5C195.802 37.2708 196.052 37.1562 196.219 37.1562C196.76 37.1562 197.031 37.7604 197.031 38.9688C197.031 40.1771 196.958 40.9792 196.812 41.375C196.667 41.75 196.25 42.2188 195.562 42.7812C191.104 46.4062 186.885 48.2188 182.906 48.2188C180.781 48.2188 179.083 47.9271 177.812 47.3438C175.479 46.2812 174.312 44.6562 174.312 42.4688C174.312 39.5938 176.302 37.4167 180.281 35.9375C179.49 35.5833 178.979 35.1354 178.75 34.5938C178.521 34.0312 178.406 33.1458 178.406 31.9375C178.406 30.7083 178.969 29.4167 180.094 28.0625C181.24 26.6875 182.635 25.5625 184.281 24.6875C187.948 22.7083 191.219 21.7188 194.094 21.7188C194.781 21.7188 195.479 21.8854 196.188 22.2188C196.896 22.5521 197.25 23.0208 197.25 23.625ZM235.312 0.15625C235.708 0.15625 236.021 0.28125 236.25 0.53125C236.479 0.78125 236.594 1.04167 236.594 1.3125C236.594 1.5625 236.385 2.04167 235.969 2.75C235.573 3.4375 234.646 4.95833 233.188 7.3125C231.729 9.64583 230.594 11.4792 229.781 12.8125C225.052 20.5 221.344 27 218.656 32.3125C215.969 37.625 214.625 40.8333 214.625 41.9375V42.1875C214.625 43.0417 214.938 43.4688 215.562 43.4688C216.188 43.4688 216.938 43.1771 217.812 42.5938C218.708 42.0104 219.49 41.3854 220.156 40.7188C220.823 40.0521 221.49 39.3646 222.156 38.6562C222.844 37.9271 223.26 37.5 223.406 37.375C223.552 37.25 223.74 37.1875 223.969 37.1875C224.323 37.1875 224.552 37.4167 224.656 37.875C224.76 38.3125 224.812 38.9375 224.812 39.75C224.812 40.5417 224.75 41.0625 224.625 41.3125C224.021 42.4792 222.688 43.9062 220.625 45.5938C218.583 47.2604 216.646 48.0938 214.812 48.0938C211.688 48.0938 210.125 46.7708 210.125 44.125C210.125 42.4792 210.75 40.3229 212 37.6562C210.312 39.8438 208.594 41.7083 206.844 43.25C203.594 46.0833 200.771 47.5 198.375 47.5C197.042 47.5 196.052 47.0312 195.406 46.0938C194.781 45.1562 194.469 43.8125 194.469 42.0625C194.469 40.2917 195.156 38.1771 196.531 35.7188C197.906 33.2604 199.615 31.0521 201.656 29.0938C203.719 27.1146 206 25.4688 208.5 24.1562C211 22.8229 213.302 22.1562 215.406 22.1562C216.073 22.1562 216.854 22.5625 217.75 23.375C218.354 22.4167 219.469 20.5 221.094 17.625C226.198 9.02083 229.573 3.77083 231.219 1.875C232.094 0.729167 233.458 0.15625 235.312 0.15625ZM215.844 26.3125C212.844 26.9792 210.052 28.375 207.469 30.5C204.885 32.625 202.948 34.8542 201.656 37.1875C200.365 39.5 199.719 41 199.719 41.6875C199.719 42.375 199.865 42.7188 200.156 42.7188C201.406 42.7188 204.5 39.9271 209.438 34.3438C211.896 31.5938 214.031 28.9167 215.844 26.3125Z"/></svg>