<svg width="89" height="19" viewBox="0 0 89 19" fill="none" xmlns="http://www.w3.org/2000/svg">
<path d="M20.0859 1.03125L20.5078 1.14844C21.5 1.29688 21.9961 1.59375 21.9961 2.03906C21.9961 2.16406 21.9492 2.26953 21.8555 2.35547C20.8008 3.30078 19.3984 4.32031 17.6484 5.41406C14.9766 7.07812 11.9453 8.6875 8.55469 10.2422C9.66406 10.875 11.168 11.9258 13.0664 13.3945C15.6133 15.2773 17.1797 16.2188 17.7656 16.2188C17.9688 16.2188 18.1406 16.1641 18.2812 16.0547C18.4297 15.9375 18.5117 15.8789 18.5273 15.8789C18.6602 15.8789 18.7266 15.9414 18.7266 16.0664C18.7266 16.1758 18.5938 16.4883 18.3281 17.0039C18.0703 17.5195 17.8477 17.8594 17.6602 18.0234C17.4805 18.1875 17.1914 18.2695 16.793 18.2695C16.3945 18.2695 15.8633 18.0742 15.1992 17.6836C14.5352 17.293 13.8086 16.8047 13.0195 16.2188C12.2383 15.625 11.457 15.0234 10.6758 14.4141C8.69922 12.8906 7.36719 11.9883 6.67969 11.707C4.27344 15.5039 3.03516 17.4688 2.96484 17.6016C2.90234 17.7344 2.81641 17.8438 2.70703 17.9297C2.60547 18.0078 2.53906 18.0469 2.50781 18.0469L2.00391 18.1172L1.59375 18.0938C1.48438 18.0938 1.40625 18.1094 1.35938 18.1406C1.3125 18.1797 1.26172 18.207 1.20703 18.2227C1.15234 18.2383 1.10547 18.2617 1.06641 18.293C1.02734 18.332 0.964844 18.3516 0.878906 18.3516C0.800781 18.3516 0.6875 18.2852 0.539062 18.1523C0.398438 18.0273 0.328125 17.918 0.328125 17.8242C0.328125 17.7305 0.382812 17.5664 0.492188 17.332C0.609375 17.0977 2.05078 14.9219 4.81641 10.8047H4.59375C4.07031 10.8047 3.80859 10.6641 3.80859 10.3828C3.80859 10.0938 3.9375 9.80859 4.19531 9.52734C4.46094 9.23828 4.72656 9.09375 4.99219 9.09375C5.25781 9.09375 5.55078 9.11719 5.87109 9.16406C7.34766 6.98438 8.48438 5.27344 9.28125 4.03125C8.375 4.88281 7.51562 5.30859 6.70312 5.30859C6.3125 5.30859 6.00391 5.17578 5.77734 4.91016C5.55078 4.63672 5.4375 4.32812 5.4375 3.98438C5.4375 3.64062 5.52344 3.35938 5.69531 3.14062C5.875 2.92188 6.04688 2.76953 6.21094 2.68359C6.375 2.59766 6.48828 2.55469 6.55078 2.55469C6.61328 2.55469 6.64453 2.58594 6.64453 2.64844L6.55078 2.92969C6.55078 3.03906 6.71875 3.09375 7.05469 3.09375C7.39062 3.09375 7.85938 2.91016 8.46094 2.54297C9.0625 2.16797 9.65234 1.79688 10.2305 1.42969C10.8086 1.05469 11.2422 0.867188 11.5312 0.867188C11.8203 0.867188 12.0078 0.902344 12.0938 0.972656C12.1875 1.03516 12.2695 1.07812 12.3398 1.10156C12.418 1.11719 12.4805 1.14453 12.5273 1.18359C12.5742 1.22266 12.6133 1.27344 12.6445 1.33594C12.6758 1.39062 12.7344 1.45312 12.8203 1.52344C12.9062 1.59375 12.9492 1.6875 12.9492 1.80469C12.9492 1.92188 12.918 2.03125 12.8555 2.13281C11.8633 3.63281 10.6445 5.52344 9.19922 7.80469C11.1367 6.79688 13.3516 5.50781 15.8438 3.9375C18.3359 2.35938 19.6836 1.42969 19.8867 1.14844C19.9336 1.07031 20 1.03125 20.0859 1.03125ZM26.8711 9.09375C27.4648 9.09375 27.7617 9.29688 27.7617 9.70312C27.7617 9.92188 27.7109 10.082 27.6094 10.1836C27.5078 10.2852 27.2891 10.625 26.9531 11.2031C26.625 11.7734 26.2578 12.5078 25.8516 13.4062C25.4531 14.2969 25.1953 15.0586 25.0781 15.6914C25.0547 15.7695 25.043 15.8789 25.043 16.0195C25.043 16.4492 25.1602 16.6641 25.3945 16.6641C25.6289 16.6641 25.9062 16.5547 26.2266 16.3359C26.5469 16.1094 26.832 15.8711 27.082 15.6211C27.332 15.3633 27.5742 15.1016 27.8086 14.8359C28.0508 14.5703 28.1953 14.418 28.2422 14.3789C28.2891 14.3398 28.3594 14.3203 28.4531 14.3203C28.6016 14.3203 28.6914 14.4336 28.7227 14.6602C28.7539 14.8867 28.7695 15.1211 28.7695 15.3633C28.7695 15.6055 28.7461 15.7734 28.6992 15.8672C28.4727 16.3125 27.9727 16.8477 27.1992 17.4727C26.4336 18.0977 25.7344 18.4102 25.1016 18.4102C24.4766 18.4102 24.0156 18.2188 23.7188 17.8359C23.4219 17.4531 23.2734 17.0312 23.2734 16.5703C23.2734 16.1016 23.3516 15.6914 23.5078 15.3398C22.8594 16.1836 22.1133 16.8984 21.2695 17.4844C20.4336 18.0703 19.75 18.3633 19.2188 18.3633C18.6875 18.3633 18.2539 18.2031 17.918 17.8828C17.4883 17.4844 17.2734 16.9336 17.2734 16.2305C17.2734 15.5195 17.4297 14.8086 17.7422 14.0977C18.0625 13.3789 18.4805 12.7266 18.9961 12.1406C19.5117 11.5469 20.0781 11.0078 20.6953 10.5234C21.9922 9.50781 23.1875 9 24.2812 9C24.7031 9 25.0469 9.07031 25.3125 9.21094C25.5781 9.35156 25.7461 9.52734 25.8164 9.73828C26.0039 9.45703 26.1602 9.28125 26.2852 9.21094C26.418 9.13281 26.6133 9.09375 26.8711 9.09375ZM25.3125 10.3945C23.9766 10.3945 22.5938 11.1367 21.1641 12.6211C20.6562 13.1523 20.1875 13.7891 19.7578 14.5312C19.3359 15.2734 19.125 15.7812 19.125 16.0547C19.125 16.3281 19.2031 16.4648 19.3594 16.4648C19.5781 16.4648 20.1875 16.0352 21.1875 15.1758C22.1875 14.3086 22.8516 13.6719 23.1797 13.2656C23.5391 12.8125 24.25 11.8555 25.3125 10.3945ZM37.418 0.410156C37.793 0.410156 38.1211 0.523438 38.4023 0.75C38.6914 0.96875 38.8359 1.29688 38.8359 1.73438C38.8359 2.17188 38.5938 2.85938 38.1094 3.79688C37.625 4.72656 37.043 5.67969 36.3633 6.65625C35.6836 7.625 34.9141 8.65625 34.0547 9.75C32.6953 11.4844 31.3906 13.043 30.1406 14.4258C30.1328 14.5195 30.0977 14.6953 30.0352 14.9531C29.9805 15.2031 29.9531 15.457 29.9531 15.7148C29.9531 15.9727 30.0703 16.207 30.3047 16.418C30.5469 16.6211 30.8438 16.7227 31.1953 16.7227C31.5469 16.7227 31.9219 16.5977 32.3203 16.3477C32.7266 16.0977 33.0781 15.8203 33.375 15.5156C34.1562 14.7109 34.6406 14.3086 34.8281 14.3086C35.0156 14.3086 35.1094 14.5938 35.1094 15.1641V15.3984C35.1094 15.7031 35.0547 15.9258 34.9453 16.0664C34.2891 16.8711 33.5508 17.4727 32.7305 17.8711C31.9102 18.2617 31.1328 18.457 30.3984 18.457C29.6641 18.457 29.1055 18.2344 28.7227 17.7891C28.3398 17.3359 28.1484 16.7188 28.1484 15.9375C28.1484 14.4141 28.5547 12.625 29.3672 10.5703C30.1875 8.50781 31.1094 6.75391 32.1328 5.30859C34.4375 2.04297 36.1992 0.410156 37.418 0.410156ZM36.8906 2.35547C36.8906 2.23828 36.8516 2.17969 36.7734 2.17969C36.5 2.17969 35.7812 2.96094 34.6172 4.52344C33.4531 6.08594 32.6094 7.33203 32.0859 8.26172C31.5703 9.19141 31.082 10.3594 30.6211 11.7656C31.543 10.6719 32.8164 8.96875 34.4414 6.65625C36.0742 4.33594 36.8906 2.90234 36.8906 2.35547ZM46.0664 9.29297L45.9258 8.73047C45.9258 8.41016 46.0352 8.16016 46.2539 7.98047C46.4805 7.79297 46.7617 7.69922 47.0977 7.69922C47.7539 7.69922 48.082 8.11719 48.082 8.95312C48.082 9.55469 47.7852 10.3867 47.1914 11.4492C46.5977 12.5039 45.8945 13.5273 45.082 14.5195C44.2773 15.5039 43.4219 16.3633 42.5156 17.0977C41.6094 17.8242 40.9102 18.1875 40.418 18.1875C39.9336 18.1875 39.5898 18.0547 39.3867 17.7891C39.1836 17.5234 39.082 17.2695 39.082 17.0273C39.082 16.7773 39.0938 16.543 39.1172 16.3242C39.2031 15.5586 39.4141 14.8281 39.75 14.1328C38.9141 15.2266 38.0156 16.2109 37.0547 17.0859C36.0938 17.9531 35.2891 18.3867 34.6406 18.3867C34.3281 18.3867 34.0781 18.293 33.8906 18.1055C33.7031 17.918 33.6094 17.6016 33.6094 17.1562C33.6094 16.7031 33.8789 15.8594 34.418 14.625C34.957 13.3828 35.4727 12.3867 35.9648 11.6367C35.7852 11.7461 35.625 11.8008 35.4844 11.8008C35.3516 11.8008 35.2031 11.7266 35.0391 11.5781C34.8828 11.4219 34.8047 11.3008 34.8047 11.2148C34.8047 11.1289 34.8633 11.0039 34.9805 10.8398C35.0977 10.6758 35.5469 10.2734 36.3281 9.63281C37.1094 8.98438 37.6445 8.66016 37.9336 8.66016C38.2227 8.66016 38.4961 8.71484 38.7539 8.82422C39.0195 8.93359 39.1523 9.08594 39.1523 9.28125C39.1523 9.46875 38.6094 10.582 37.5234 12.6211C36.4375 14.6602 35.8945 15.7656 35.8945 15.9375C35.8945 15.9609 35.9023 15.9727 35.918 15.9727C36.082 15.9727 36.8984 15.1367 38.3672 13.4648C39.8438 11.793 41.0039 10.418 41.8477 9.33984C41.9648 9.14453 42.1406 9.04688 42.375 9.04688L42.4805 9.05859L43.125 8.92969C43.2266 8.92969 43.3242 8.96875 43.418 9.04688C43.5195 9.125 43.5703 9.19531 43.5703 9.25781C43.5703 9.32031 43.4297 9.60156 43.1484 10.1016C42.875 10.6016 42.4258 11.5469 41.8008 12.9375C41.1758 14.3281 40.8633 15.3047 40.8633 15.8672C40.8633 16.0078 40.9141 16.0781 41.0156 16.0781C41.3125 16.0781 41.9297 15.543 42.8672 14.4727C43.8125 13.3945 44.582 12.3633 45.1758 11.3789C45.7695 10.3945 46.0664 9.69922 46.0664 9.29297ZM56.1211 9.09375C56.7148 9.09375 57.0117 9.29688 57.0117 9.70312C57.0117 9.92188 56.9609 10.082 56.8594 10.1836C56.7578 10.2852 56.5391 10.625 56.2031 11.2031C55.875 11.7734 55.5078 12.5078 55.1016 13.4062C54.7031 14.2969 54.4453 15.0586 54.3281 15.6914C54.3047 15.7695 54.293 15.8789 54.293 16.0195C54.293 16.4492 54.4102 16.6641 54.6445 16.6641C54.8789 16.6641 55.1562 16.5547 55.4766 16.3359C55.7969 16.1094 56.082 15.8711 56.332 15.6211C56.582 15.3633 56.8242 15.1016 57.0586 14.8359C57.3008 14.5703 57.4453 14.418 57.4922 14.3789C57.5391 14.3398 57.6094 14.3203 57.7031 14.3203C57.8516 14.3203 57.9414 14.4336 57.9727 14.6602C58.0039 14.8867 58.0195 15.1211 58.0195 15.3633C58.0195 15.6055 57.9961 15.7734 57.9492 15.8672C57.7227 16.3125 57.2227 16.8477 56.4492 17.4727C55.6836 18.0977 54.9844 18.4102 54.3516 18.4102C53.7266 18.4102 53.2656 18.2188 52.9688 17.8359C52.6719 17.4531 52.5234 17.0312 52.5234 16.5703C52.5234 16.1016 52.6016 15.6914 52.7578 15.3398C52.1094 16.1836 51.3633 16.8984 50.5195 17.4844C49.6836 18.0703 49 18.3633 48.4688 18.3633C47.9375 18.3633 47.5039 18.2031 47.168 17.8828C46.7383 17.4844 46.5234 16.9336 46.5234 16.2305C46.5234 15.5195 46.6797 14.8086 46.9922 14.0977C47.3125 13.3789 47.7305 12.7266 48.2461 12.1406C48.7617 11.5469 49.3281 11.0078 49.9453 10.5234C51.2422 9.50781 52.4375 9 53.5312 9C53.9531 9 54.2969 9.07031 54.5625 9.21094C54.8281 9.35156 54.9961 9.52734 55.0664 9.73828C55.2539 9.45703 55.4102 9.28125 55.5352 9.21094C55.668 9.13281 55.8633 9.09375 56.1211 9.09375ZM54.5625 10.3945C53.2266 10.3945 51.8438 11.1367 50.4141 12.6211C49.9062 13.1523 49.4375 13.7891 49.0078 14.5312C48.5859 15.2734 48.375 15.7812 48.375 16.0547C48.375 16.3281 48.4531 16.4648 48.6094 16.4648C48.8281 16.4648 49.4375 16.0352 50.4375 15.1758C51.4375 14.3086 52.1016 13.6719 52.4297 13.2656C52.7891 12.8125 53.5 11.8555 54.5625 10.3945ZM66.5977 1.27734C64.9492 3.75391 63.3438 6.34375 61.7812 9.04688C62.1406 8.85938 62.543 8.72656 62.9883 8.64844C63.4414 8.5625 63.7578 8.51953 63.9375 8.51953C64.125 8.51953 64.2852 8.52734 64.418 8.54297C64.5508 8.55078 64.7188 8.59375 64.9219 8.67188C65.1328 8.74219 65.3125 8.84375 65.4609 8.97656C65.8203 9.29688 66 9.75 66 10.3359C66 10.9219 65.8398 11.5664 65.5195 12.2695C65.207 12.9648 64.7773 13.6641 64.2305 14.3672C63.6914 15.0703 63.0977 15.7266 62.4492 16.3359C61.8086 16.9375 61.1172 17.4297 60.375 17.8125C59.6328 18.1953 58.9414 18.3867 58.3008 18.3867C58.0039 18.3867 57.6602 18.1953 57.2695 17.8125C56.8867 17.4297 56.6953 16.9258 56.6953 16.3008C56.6953 15.6758 56.9648 14.707 57.5039 13.3945C58.043 12.082 58.6953 10.75 59.4609 9.39844C60.2344 8.03906 61.0195 6.71484 61.8164 5.42578C62.6211 4.13672 63.3047 3.08203 63.8672 2.26172C64.4297 1.44141 64.7734 0.96875 64.8984 0.84375C65.0234 0.71875 65.25 0.613281 65.5781 0.527344C65.9141 0.441406 66.2031 0.402344 66.4453 0.410156C66.6875 0.410156 66.8086 0.519531 66.8086 0.738281C66.8086 0.878906 66.7383 1.05859 66.5977 1.27734ZM63.4336 12.5273C63.7539 11.9648 63.9141 11.4531 63.9141 10.9922C63.9141 10.5312 63.7656 10.3008 63.4688 10.3008C63.1797 10.3008 62.7305 10.4297 62.1211 10.6875C61.5195 10.9375 61.1758 11.0625 61.0898 11.0625C61.0039 11.0625 60.8906 10.9922 60.75 10.8516C59.2266 13.5938 58.4648 15.3438 58.4648 16.1016C58.4648 16.4531 58.5781 16.6289 58.8047 16.6289C59.3438 16.6289 60.1211 16.1797 61.1367 15.2812C62.1523 14.375 62.918 13.457 63.4336 12.5273ZM73.9688 9.23438C73.9688 9.75 73.7578 10.2031 73.3359 10.5938C72.9219 10.9844 72.4492 11.1797 71.918 11.1797C71.7461 11.1797 71.6328 11.1406 71.5781 11.0625C71.5234 10.9766 71.4961 10.8672 71.4961 10.7344C71.4961 10.6016 71.5117 10.4727 71.543 10.3477C71.2617 10.4414 70.9492 10.5859 70.6055 10.7812C70.2617 10.9766 69.8398 11.2656 69.3398 11.6484C68.8398 12.0312 68.5898 12.3164 68.5898 12.5039C68.5898 12.5664 68.6797 12.5977 68.8594 12.5977C69.0469 12.5977 69.332 12.5352 69.7148 12.4102C70.0977 12.2773 70.3633 12.2109 70.5117 12.2109C70.668 12.2109 70.7695 12.2188 70.8164 12.2344C70.918 12.2891 71.0273 12.4102 71.1445 12.5977C71.2617 12.7773 71.3203 12.9219 71.3203 13.0312C71.3203 13.1328 71.2188 13.2695 71.0156 13.4414C70.8125 13.6133 70.582 13.7461 70.3242 13.8398C70.0664 13.9258 69.8945 13.9922 69.8086 14.0391C68.1602 14.9609 67.3359 15.5938 67.3359 15.9375C67.3359 16.5469 67.8555 16.8516 68.8945 16.8516C69.5586 16.8516 70.2266 16.6406 70.8984 16.2188C71.4688 15.8594 71.9805 15.4961 72.4336 15.1289C72.8945 14.7539 73.1836 14.5234 73.3008 14.4375C73.4258 14.3516 73.5195 14.3086 73.582 14.3086C73.7852 14.3086 73.8867 14.5352 73.8867 14.9883C73.8867 15.4414 73.8594 15.7422 73.8047 15.8906C73.75 16.0312 73.5938 16.207 73.3359 16.418C71.6641 17.7773 70.082 18.457 68.5898 18.457C67.793 18.457 67.1562 18.3477 66.6797 18.1289C65.8047 17.7305 65.3672 17.1211 65.3672 16.3008C65.3672 15.2227 66.1133 14.4062 67.6055 13.8516C67.3086 13.7188 67.1172 13.5508 67.0312 13.3477C66.9453 13.1367 66.9023 12.8047 66.9023 12.3516C66.9023 11.8906 67.1133 11.4062 67.5352 10.8984C67.9648 10.3828 68.4883 9.96094 69.1055 9.63281C70.4805 8.89062 71.707 8.51953 72.7852 8.51953C73.043 8.51953 73.3047 8.58203 73.5703 8.70703C73.8359 8.83203 73.9688 9.00781 73.9688 9.23438ZM88.2422 0.433594C88.3906 0.433594 88.5078 0.480469 88.5938 0.574219C88.6797 0.667969 88.7227 0.765625 88.7227 0.867188C88.7227 0.960938 88.6445 1.14062 88.4883 1.40625C88.3398 1.66406 87.9922 2.23438 87.4453 3.11719C86.8984 3.99219 86.4727 4.67969 86.168 5.17969C84.3945 8.0625 83.0039 10.5 81.9961 12.4922C80.9883 14.4844 80.4844 15.6875 80.4844 16.1016V16.1953C80.4844 16.5156 80.6016 16.6758 80.8359 16.6758C81.0703 16.6758 81.3516 16.5664 81.6797 16.3477C82.0156 16.1289 82.3086 15.8945 82.5586 15.6445C82.8086 15.3945 83.0586 15.1367 83.3086 14.8711C83.5664 14.5977 83.7227 14.4375 83.7773 14.3906C83.832 14.3438 83.9023 14.3203 83.9883 14.3203C84.1211 14.3203 84.207 14.4062 84.2461 14.5781C84.2852 14.7422 84.3047 14.9766 84.3047 15.2812C84.3047 15.5781 84.2812 15.7734 84.2344 15.8672C84.0078 16.3047 83.5078 16.8398 82.7344 17.4727C81.9688 18.0977 81.2422 18.4102 80.5547 18.4102C79.3828 18.4102 78.7969 17.9141 78.7969 16.9219C78.7969 16.3047 79.0312 15.4961 79.5 14.4961C78.8672 15.3164 78.2227 16.0156 77.5664 16.5938C76.3477 17.6562 75.2891 18.1875 74.3906 18.1875C73.8906 18.1875 73.5195 18.0117 73.2773 17.6602C73.043 17.3086 72.9258 16.8047 72.9258 16.1484C72.9258 15.4844 73.1836 14.6914 73.6992 13.7695C74.2148 12.8477 74.8555 12.0195 75.6211 11.2852C76.3945 10.543 77.25 9.92578 78.1875 9.43359C79.125 8.93359 79.9883 8.68359 80.7773 8.68359C81.0273 8.68359 81.3203 8.83594 81.6562 9.14062C81.8828 8.78125 82.3008 8.0625 82.9102 6.98438C84.8242 3.75781 86.0898 1.78906 86.707 1.07812C87.0352 0.648437 87.5469 0.433594 88.2422 0.433594ZM80.9414 10.2422C79.8164 10.4922 78.7695 11.0156 77.8008 11.8125C76.832 12.6094 76.1055 13.4453 75.6211 14.3203C75.1367 15.1875 74.8945 15.75 74.8945 16.0078C74.8945 16.2656 74.9492 16.3945 75.0586 16.3945C75.5273 16.3945 76.6875 15.3477 78.5391 13.2539C79.4609 12.2227 80.2617 11.2188 80.9414 10.2422Z" fill="white"/>
</svg>
