<?xml version="1.0" standalone="no"?>
<!DOCTYPE svg PUBLIC "-//W3C//DTD SVG 20010904//EN"
 "http://www.w3.org/TR/2001/REC-SVG-20010904/DTD/svg10.dtd">
<svg version="1.0" xmlns="http://www.w3.org/2000/svg"
 width="2016.000000pt" height="2016.000000pt" viewBox="0 0 2016.000000 2016.000000"
 preserveAspectRatio="xMidYMid meet">
<metadata>
Created by potrace 1.14, written by Peter Selinger 2001-2017
</metadata>
<g transform="translate(0.000000,2016.000000) scale(0.100000,-0.100000)"
fill="#000000" stroke="none">
<path d="M9708 20155 c-2 -2 -66 -6 -143 -9 -77 -4 -160 -8 -185 -10 -25 -3
-81 -7 -125 -10 -44 -4 -93 -8 -110 -10 -16 -2 -64 -7 -105 -10 -41 -4 -86 -9
-100 -11 -14 -3 -50 -7 -80 -10 -30 -3 -66 -7 -80 -10 -31 -5 -106 -16 -140
-20 -27 -3 -283 -45 -315 -51 -11 -3 -36 -7 -55 -10 -32 -5 -305 -60 -340 -69
-69 -16 -118 -27 -135 -31 -55 -10 -494 -129 -595 -161 -140 -43 -320 -101
-340 -110 -8 -3 -17 -7 -20 -8 -35 -9 -264 -93 -415 -152 -371 -147 -848 -372
-1175 -556 -189 -106 -309 -177 -475 -280 -114 -71 -417 -274 -516 -346 -46
-34 -95 -69 -108 -79 -43 -30 -286 -216 -291 -221 -3 -4 -50 -42 -105 -86 -55
-44 -113 -91 -130 -106 -16 -14 -86 -75 -155 -135 -130 -113 -174 -152 -348
-319 -143 -136 -194 -188 -357 -360 -167 -177 -154 -163 -235 -256 -35 -41
-67 -76 -70 -79 -3 -3 -22 -25 -42 -50 -20 -25 -49 -58 -63 -75 -15 -16 -39
-45 -53 -64 -15 -18 -40 -49 -57 -68 -56 -66 -310 -401 -397 -525 -80 -113
-176 -257 -290 -433 -161 -249 -393 -662 -522 -930 -299 -616 -450 -1006 -656
-1690 -77 -256 -218 -891 -255 -1150 -3 -22 -8 -53 -10 -70 -12 -74 -15 -91
-21 -134 -3 -25 -7 -57 -10 -70 -2 -14 -6 -54 -10 -90 -3 -36 -8 -73 -10 -84
-1 -10 -6 -52 -9 -93 -4 -42 -8 -84 -10 -95 -2 -10 -7 -58 -10 -107 -4 -48 -8
-107 -11 -132 -26 -298 -26 -1122 1 -1405 2 -22 6 -79 10 -127 3 -47 7 -95 9
-105 2 -10 7 -54 10 -98 4 -44 9 -91 11 -105 3 -14 7 -46 10 -72 3 -26 7 -62
9 -80 3 -18 8 -55 11 -81 4 -27 8 -56 9 -65 2 -10 6 -38 10 -63 8 -56 10 -66
35 -209 11 -63 23 -131 26 -150 19 -113 121 -563 146 -645 5 -16 27 -97 50
-180 99 -361 315 -974 434 -1231 8 -16 29 -66 48 -110 106 -244 288 -607 444
-883 29 -51 53 -96 53 -98 0 -2 11 -19 25 -37 14 -18 25 -36 25 -40 0 -4 15
-31 33 -60 17 -28 37 -61 44 -72 128 -210 387 -595 405 -602 4 -2 8 -8 8 -13
0 -8 131 -191 150 -209 3 -3 25 -32 50 -65 25 -33 47 -62 50 -65 3 -3 39 -48
80 -100 41 -52 113 -139 160 -195 47 -55 94 -111 105 -124 23 -26 40 -45 145
-162 186 -205 470 -490 670 -673 36 -32 83 -75 105 -95 22 -20 69 -61 105 -91
36 -30 67 -57 70 -60 22 -22 259 -217 330 -270 18 -14 47 -36 65 -50 157 -123
344 -257 555 -397 85 -56 160 -106 165 -111 6 -4 36 -23 69 -42 32 -19 69 -42
81 -50 41 -26 208 -126 255 -152 25 -14 77 -43 115 -65 507 -288 1141 -568
1723 -763 193 -64 577 -177 697 -205 11 -2 58 -14 105 -25 224 -55 457 -103
680 -140 208 -34 220 -36 285 -45 28 -3 61 -8 75 -10 14 -2 46 -6 72 -9 300
-34 315 -35 407 -41 42 -3 96 -7 121 -10 258 -27 1137 -27 1410 0 19 2 74 6
122 10 49 3 96 8 105 9 10 2 54 7 98 11 86 8 103 10 180 19 28 4 70 9 95 12
25 3 68 9 95 14 28 5 69 11 93 14 37 5 178 28 252 42 14 2 41 7 60 10 31 5
240 47 295 60 11 2 32 6 47 9 30 6 135 31 188 45 19 5 123 32 230 60 197 52
351 97 514 152 49 17 94 31 100 33 6 1 18 5 26 8 8 3 62 22 120 43 115 40 273
99 305 113 11 5 40 17 65 26 25 9 59 23 75 30 17 7 64 28 105 45 41 17 99 42
128 56 29 13 54 24 56 24 24 0 584 280 761 380 28 15 67 38 88 49 82 46 109
62 248 146 204 124 553 352 596 389 7 6 42 31 78 56 101 69 440 329 555 426
66 56 259 222 294 254 220 198 361 334 571 552 165 170 285 303 403 443 74 88
119 142 132 158 8 10 23 28 34 40 10 12 30 38 45 57 14 19 29 37 32 40 12 10
295 390 339 455 25 37 50 72 55 78 10 11 157 231 180 269 5 9 56 90 111 180
151 242 205 337 345 603 90 169 279 557 279 571 0 2 14 33 30 69 83 181 233
567 318 820 65 191 156 492 177 581 2 10 16 64 31 119 14 55 27 107 29 115 2
8 15 62 29 120 26 108 80 367 90 430 3 19 10 58 15 85 5 28 12 68 15 90 4 23
8 52 11 65 9 46 40 262 51 355 3 33 8 68 10 79 2 10 6 51 9 90 4 39 8 89 10
111 3 22 7 69 10 105 3 36 7 90 10 120 27 317 27 1164 0 1425 -3 22 -7 72 -10
111 -2 39 -7 88 -9 110 -3 21 -8 66 -11 99 -7 81 -15 155 -20 185 -2 14 -7 50
-10 80 -3 30 -8 62 -10 70 -2 8 -7 38 -10 65 -7 65 -50 320 -75 447 -11 54
-22 111 -25 126 -8 48 -74 335 -91 397 -8 33 -17 69 -20 80 -18 93 -179 626
-221 735 -3 8 -7 20 -9 25 -8 34 -130 362 -159 430 -8 17 -28 66 -45 110 -18
44 -41 100 -52 125 -11 25 -26 59 -33 75 -91 206 -138 307 -228 485 -86 170
-165 319 -209 393 -15 26 -28 50 -28 52 0 8 -212 358 -297 490 -100 154 -200
302 -265 391 -27 36 -48 69 -48 74 0 4 -3 10 -8 12 -4 2 -32 37 -62 78 -30 41
-57 77 -60 80 -3 3 -34 43 -70 90 -35 47 -69 90 -75 96 -5 6 -23 29 -40 50
-62 79 -252 305 -320 380 -5 6 -44 49 -85 94 -199 220 -494 515 -699 700 -46
41 -89 80 -95 85 -6 6 -45 39 -86 75 -41 36 -77 67 -80 70 -3 3 -30 25 -60 50
-30 25 -57 47 -60 50 -3 3 -36 30 -75 60 -38 30 -72 57 -75 60 -3 4 -36 30
-75 59 -38 30 -83 64 -100 77 -32 25 -229 169 -265 194 -12 8 -32 22 -44 31
-26 20 -301 203 -376 251 -30 19 -68 43 -85 54 -35 22 -28 18 -192 115 -70 42
-150 89 -178 104 -27 15 -90 50 -140 78 -119 66 -490 251 -635 317 -115 52
-389 170 -395 170 -1 0 -20 8 -41 17 -22 9 -43 18 -49 19 -5 2 -68 26 -140 54
-245 96 -874 295 -1060 335 -52 11 -153 36 -185 45 -86 25 -574 121 -690 136
-19 2 -46 6 -60 9 -14 3 -43 7 -65 10 -22 3 -56 8 -75 10 -19 3 -52 7 -72 10
-21 3 -53 7 -70 9 -42 6 -167 19 -298 32 -36 3 -78 8 -95 9 -16 2 -79 7 -140
10 -60 4 -126 9 -145 12 -42 5 -917 13 -922 8z"/>
</g>
</svg>
