<svg xmlns="http://www.w3.org/2000/svg" width="94" height="20" fill="none" viewBox="0 0 94 20"><path fill="#000" d="M0.761719 3.67773C0.761719 3.44336 0.800781 3.29688 0.878906 3.23828C0.957031 3.16016 1.08398 3.12109 1.25977 3.12109C1.49414 3.12109 1.66016 3.19922 1.75781 3.35547C1.875 3.51172 1.97266 3.70703 2.05078 3.94141C2.05078 4.17578 2.04102 4.53711 2.02148 5.02539C2.02148 5.51367 2.02148 6.07031 2.02148 6.69531C2.02148 7.30078 2.02148 7.94531 2.02148 8.62891C2.02148 9.3125 2.02148 9.9668 2.02148 10.5918C2.02148 11.2168 2.02148 11.7832 2.02148 12.291C2.04102 12.7793 2.05078 13.1406 2.05078 13.375C2.05078 13.4727 2.06055 13.668 2.08008 13.9609C2.09961 14.2539 2.11914 14.5664 2.13867 14.8984C2.1582 15.2109 2.17773 15.5137 2.19727 15.8066C2.23633 16.0996 2.26562 16.3047 2.28516 16.4219C2.30469 16.4805 2.34375 16.5781 2.40234 16.7148C2.48047 16.8516 2.53906 16.9297 2.57812 16.9492C2.57812 16.9688 2.58789 16.9785 2.60742 16.9785H2.66602C2.7832 16.9785 2.97852 16.7539 3.25195 16.3047C3.54492 15.8555 3.86719 15.2793 4.21875 14.5762C4.58984 13.873 4.99023 13.0918 5.41992 12.2324C5.86914 11.373 6.30859 10.5234 6.73828 9.68359C7.1875 8.84375 7.61719 8.07227 8.02734 7.36914C8.45703 6.66602 8.84766 6.10938 9.19922 5.69922C9.21875 5.69922 9.23828 5.69922 9.25781 5.69922C9.29688 5.69922 9.32617 5.69922 9.3457 5.69922C9.52148 5.69922 9.62891 5.77734 9.66797 5.93359C9.70703 6.07031 9.72656 6.2168 9.72656 6.37305C9.72656 6.86133 9.58984 7.35938 9.31641 7.86719C9.04297 8.375 8.74023 8.93164 8.4082 9.53711C8.0957 10.1426 7.80273 10.7871 7.5293 11.4707C7.25586 12.1543 7.11914 12.916 7.11914 13.7559C7.11914 13.8145 7.11914 13.9121 7.11914 14.0488C7.11914 14.166 7.11914 14.3027 7.11914 14.459C7.13867 14.6152 7.14844 14.7617 7.14844 14.8984C7.14844 15.0352 7.14844 15.1328 7.14844 15.1914C7.28516 15.6797 7.55859 16.0801 7.96875 16.3926C8.39844 16.7051 8.88672 16.9492 9.43359 17.125C9.98047 17.3008 10.5566 17.4277 11.1621 17.5059C11.7871 17.584 12.3535 17.6426 12.8613 17.6816C13.3691 17.7207 13.7891 17.7695 14.1211 17.8281C14.4531 17.8867 14.6191 17.9746 14.6191 18.0918C14.6191 18.1504 14.6094 18.1992 14.5898 18.2383C14.1211 18.4141 13.6719 18.502 13.2422 18.502C12.8125 18.502 12.3633 18.502 11.8945 18.502C10.8594 18.502 10.0098 18.4434 9.3457 18.3262C8.70117 18.209 8.1543 17.9941 7.70508 17.6816C7.27539 17.3496 6.9043 16.9004 6.5918 16.334C6.2793 15.7676 5.95703 15.0352 5.625 14.1367C5.39062 14.2734 5.19531 14.4883 5.03906 14.7812C4.88281 15.0742 4.73633 15.4062 4.59961 15.7773C4.48242 16.1289 4.36523 16.5 4.24805 16.8906C4.15039 17.2812 4.02344 17.6328 3.86719 17.9453C3.71094 18.2578 3.51562 18.5215 3.28125 18.7363C3.04688 18.9316 2.76367 19.0293 2.43164 19.0293C2.11914 19.0293 1.86523 18.873 1.66992 18.5605C1.47461 18.248 1.32812 17.8965 1.23047 17.5059C1.13281 17.0957 1.06445 16.7148 1.02539 16.3633C1.00586 15.9922 0.996094 15.7578 0.996094 15.6602L0.761719 3.67773ZM21.9727 15.4258C21.6797 15.7773 21.3379 16.1484 20.9473 16.5391C20.5762 16.9297 20.166 17.291 19.7168 17.623C19.2871 17.9551 18.8281 18.2383 18.3398 18.4727C17.8711 18.6875 17.3828 18.7949 16.875 18.7949C15.8398 18.7949 15.3223 18.2969 15.3223 17.3008C15.3223 16.8906 15.4883 16.3535 15.8203 15.6895C16.1719 15.0059 16.6211 14.293 17.168 13.5508C17.7148 12.8086 18.3203 12.0957 18.9844 11.4121C19.6484 10.709 20.3125 10.1328 20.9766 9.68359C21.6406 9.21484 22.2461 8.92188 22.793 8.80469C23.3594 8.6875 23.8184 8.85352 24.1699 9.30273C24.1699 9.83008 24.1309 10.3574 24.0527 10.8848C23.9746 11.4121 23.8965 11.9395 23.8184 12.4668C23.7402 12.9746 23.6621 13.4824 23.584 13.9902C23.5059 14.498 23.4668 15.0156 23.4668 15.543C23.4668 15.6602 23.4766 15.8457 23.4961 16.0996C23.5352 16.334 23.584 16.5781 23.6426 16.832C23.7207 17.0664 23.8184 17.2812 23.9355 17.4766C24.0527 17.6523 24.209 17.7402 24.4043 17.7402C24.873 17.7402 25.2539 17.6816 25.5469 17.5645C25.8594 17.4473 26.123 17.3105 26.3379 17.1543C26.5723 16.9785 26.7676 16.7832 26.9238 16.5684C27.0996 16.3535 27.2754 16.1387 27.4512 15.9238C27.6465 15.709 27.8613 15.5039 28.0957 15.3086C28.3301 15.1133 28.6328 14.957 29.0039 14.8398C29.0039 14.8398 29.0039 14.8691 29.0039 14.9277C29.0039 14.9863 29.0039 15.0352 29.0039 15.0742C29.0039 15.5625 28.8574 16.0508 28.5645 16.5391C28.2715 17.0078 27.9004 17.4277 27.4512 17.7988C27.002 18.1699 26.4941 18.4727 25.9277 18.707C25.3809 18.9219 24.8438 19.0293 24.3164 19.0293C23.8672 19.0293 23.5059 18.9023 23.2324 18.6484C22.959 18.3945 22.7344 18.0918 22.5586 17.7402C22.4023 17.3887 22.2852 17.0078 22.207 16.5977C22.1289 16.168 22.0508 15.7773 21.9727 15.4258ZM22.5 11.5879C22.6953 10.9434 22.7637 10.5039 22.7051 10.2695C22.666 10.0352 22.5293 9.94727 22.2949 10.0059C22.0605 10.0449 21.7578 10.2109 21.3867 10.5039C21.0156 10.7773 20.6152 11.1191 20.1855 11.5293C19.7559 11.9199 19.3262 12.3594 18.8965 12.8477C18.4668 13.3359 18.0664 13.8047 17.6953 14.2539C17.3242 14.6836 17.0215 15.0742 16.7871 15.4258C16.5527 15.7773 16.4062 16.0312 16.3477 16.1875C16.2305 16.6367 16.2109 16.9785 16.2891 17.2129C16.3867 17.4473 16.5234 17.6133 16.6992 17.7109C16.8945 17.7891 17.0996 17.7988 17.3145 17.7402C17.5488 17.6816 17.7441 17.5938 17.9004 17.4766C18.2324 17.1836 18.6523 16.793 19.1602 16.3047C19.668 15.7969 20.1562 15.2598 20.625 14.6934C21.1133 14.127 21.5332 13.5703 21.8848 13.0234C22.2363 12.457 22.4414 11.9785 22.5 11.5879ZM27.9492 16.832C27.9492 16.7148 28.0762 16.6172 28.3301 16.5391C28.584 16.4609 28.8672 16.3633 29.1797 16.2461C29.5117 16.1289 29.834 15.9922 30.1465 15.8359C30.4785 15.6602 30.7031 15.4453 30.8203 15.1914C30.7812 14.2539 30.791 13.3652 30.8496 12.5254C30.9082 11.6855 31.0059 10.8555 31.1426 10.0352C31.2793 9.21484 31.4453 8.39453 31.6406 7.57422C31.8555 6.73438 32.0898 5.85547 32.3438 4.9375C32.3047 4.74219 32.3438 4.43945 32.4609 4.0293C32.5977 3.61914 32.7734 3.21875 32.9883 2.82812C33.2031 2.4375 33.4375 2.0957 33.6914 1.80273C33.9648 1.49023 34.209 1.33398 34.4238 1.33398C34.6582 1.33398 34.8242 1.46094 34.9219 1.71484C35.0391 1.96875 35.1172 2.26172 35.1562 2.59375C35.1953 2.92578 35.2051 3.26758 35.1855 3.61914C35.166 3.95117 35.1562 4.20508 35.1562 4.38086C35.1562 5.37695 35.0977 6.34375 34.9805 7.28125C34.8633 8.19922 34.6777 9.09766 34.4238 9.97656C34.1895 10.8555 33.8965 11.7246 33.5449 12.584C33.1934 13.4434 32.793 14.3125 32.3438 15.1914C32.3438 15.1914 32.334 15.2207 32.3145 15.2793C32.3145 15.3379 32.3145 15.3867 32.3145 15.4258C32.334 16.1289 32.5391 16.627 32.9297 16.9199C33.3203 17.1934 33.7793 17.3496 34.3066 17.3887C34.8535 17.4082 35.4102 17.3398 35.9766 17.1836C36.5625 17.0273 37.041 16.8711 37.4121 16.7148L37.6758 16.9492C37.5781 17.125 37.4316 17.3105 37.2363 17.5059C37.0605 17.6816 36.8652 17.8477 36.6504 18.0039C36.4355 18.1406 36.2207 18.2578 36.0059 18.3555C35.8105 18.4336 35.6543 18.4727 35.5371 18.4727C35.0293 18.4727 34.5898 18.4531 34.2188 18.4141C33.8477 18.375 33.5059 18.2969 33.1934 18.1797C32.8809 18.0625 32.5781 17.8867 32.2852 17.6523C31.9922 17.418 31.6699 17.1055 31.3184 16.7148H31.084C30.9082 16.8711 30.7422 16.998 30.5859 17.0957C30.4492 17.1738 30.2832 17.2324 30.0879 17.2715C29.8926 17.3105 29.668 17.3398 29.4141 17.3594C29.1797 17.3594 28.9062 17.3594 28.5938 17.3594C28.3789 17.3594 28.2227 17.3301 28.125 17.2715C28.0078 17.1934 27.9492 17.0469 27.9492 16.832ZM34.1309 3.94141C33.7402 4.46875 33.4082 5.06445 33.1348 5.72852C32.8809 6.39258 32.6758 7.07617 32.5195 7.7793C32.3633 8.48242 32.2461 9.19531 32.168 9.91797C32.0898 10.6406 32.0508 11.334 32.0508 11.998C32.0508 12.0371 32.0508 12.125 32.0508 12.2617C32.0703 12.3984 32.0801 12.5449 32.0801 12.7012C32.0801 12.8379 32.0801 12.9746 32.0801 13.1113C32.0996 13.248 32.1094 13.3359 32.1094 13.375C32.1289 13.3555 32.168 13.3164 32.2266 13.2578C32.2852 13.1992 32.3242 13.1602 32.3438 13.1406V12.8477C32.6367 12.2031 32.8906 11.5781 33.1055 10.9727C33.3398 10.3672 33.5352 9.76172 33.6914 9.15625C33.8477 8.53125 33.9648 7.89648 34.043 7.25195C34.1211 6.60742 34.1602 5.91406 34.1602 5.17188C34.1602 5.13281 34.1602 5.05469 34.1602 4.9375C34.1602 4.80078 34.1602 4.67383 34.1602 4.55664C34.1602 4.41992 34.1504 4.29297 34.1309 4.17578C34.1309 4.05859 34.1309 3.98047 34.1309 3.94141ZM43.0078 9.50781C42.9883 9.50781 42.9688 9.51758 42.9492 9.53711C42.9492 9.53711 42.9395 9.53711 42.9199 9.53711C42.9199 9.55664 42.9004 9.56641 42.8613 9.56641C42.8027 9.58594 42.7051 9.66406 42.5684 9.80078C42.4512 9.9375 42.3828 10.0156 42.3633 10.0352L39.5508 15.9531C39.5508 15.9727 39.4922 16.0605 39.375 16.2168C39.2773 16.373 39.1504 16.5488 38.9941 16.7441C38.8379 16.9395 38.6816 17.1152 38.5254 17.2715C38.3691 17.4082 38.2422 17.4766 38.1445 17.4766H38.0859C38.0664 17.4766 38.0469 17.4766 38.0273 17.4766C37.9883 17.457 37.9297 17.418 37.8516 17.3594C37.793 17.2812 37.7539 17.2324 37.7344 17.2129C37.7344 17.1543 37.7344 17.0664 37.7344 16.9492C37.7344 16.832 37.7344 16.7148 37.7344 16.5977C37.7344 16.4609 37.7344 16.334 37.7344 16.2168C37.7344 16.0801 37.7344 15.9922 37.7344 15.9531C37.7344 15.3672 37.7637 14.791 37.8223 14.2246C37.8809 13.6387 37.9395 13.0625 37.998 12.4961C38.0762 11.9102 38.1445 11.334 38.2031 10.7676C38.2617 10.2012 38.291 9.625 38.291 9.03906C38.291 8.98047 38.291 8.88281 38.291 8.74609C38.291 8.58984 38.2812 8.43359 38.2617 8.27734C38.2617 8.10156 38.2617 7.94531 38.2617 7.80859C38.2617 7.67188 38.2617 7.57422 38.2617 7.51562C38.3203 7.24219 38.2715 7.08594 38.1152 7.04688C37.959 6.98828 37.8027 6.95898 37.6465 6.95898C37.2559 6.95898 36.9922 6.99805 36.8555 7.07617C36.7188 7.13477 36.6113 7.20312 36.5332 7.28125C36.4355 7.35938 36.3184 7.4375 36.1816 7.51562C36.0449 7.57422 35.7715 7.60352 35.3613 7.60352C35.0098 7.60352 34.834 7.4082 34.834 7.01758C34.834 6.76367 34.9707 6.53906 35.2441 6.34375C35.498 6.14844 35.8008 5.99219 36.1523 5.875C36.5039 5.73828 36.8555 5.64062 37.207 5.58203C37.5586 5.50391 37.832 5.46484 38.0273 5.46484C38.2617 5.46484 38.4961 5.54297 38.7305 5.69922C38.9844 5.83594 39.1699 6.01172 39.2871 6.22656C39.2871 6.34375 39.2871 6.53906 39.2871 6.8125C39.3066 7.08594 39.3164 7.37891 39.3164 7.69141C39.3164 8.00391 39.3164 8.30664 39.3164 8.59961C39.3164 8.87305 39.3164 9.06836 39.3164 9.18555C39.3164 10.0059 39.2676 10.7969 39.1699 11.5586C39.0918 12.3203 39.0527 13.1016 39.0527 13.9023V14.4004C39.5801 13.2676 40.1367 12.1055 40.7227 10.9141C41.3086 9.72266 41.9336 8.58984 42.5977 7.51562C42.6172 7.47656 42.6562 7.42773 42.7148 7.36914C42.793 7.29102 42.8418 7.24219 42.8613 7.22266H43.0078C43.1836 7.22266 43.3398 7.28125 43.4766 7.39844C43.6133 7.49609 43.7207 7.62305 43.7988 7.7793C43.8965 7.91602 43.9648 8.08203 44.0039 8.27734C44.0625 8.45312 44.1113 8.61914 44.1504 8.77539C44.1504 8.85352 44.1699 9.03906 44.209 9.33203C44.248 9.60547 44.2969 9.92773 44.3555 10.2988C44.4141 10.6504 44.4629 11.041 44.502 11.4707C44.5605 11.8809 44.6191 12.2715 44.6777 12.6426C44.7363 12.9941 44.7852 13.3164 44.8242 13.6094C44.8633 13.8828 44.8926 14.0586 44.9121 14.1367C44.9316 14.2734 44.9805 14.498 45.0586 14.8105C45.1562 15.123 45.2637 15.4551 45.3809 15.8066C45.498 16.1582 45.6055 16.5 45.7031 16.832C45.8203 17.1445 45.8984 17.3594 45.9375 17.4766C46.0547 17.418 46.1914 17.3496 46.3477 17.2715C46.5234 17.1738 46.6406 17.0664 46.6992 16.9492C46.8359 16.7148 47.002 16.4121 47.1973 16.041C47.4121 15.6699 47.6074 15.3086 47.7832 14.957C47.9785 14.6055 48.1445 14.3027 48.2812 14.0488C48.418 13.7754 48.4863 13.6289 48.4863 13.6094V13.1406L49.7754 7.75C49.7754 7.75 49.7656 7.69141 49.7461 7.57422C49.7266 7.4375 49.7168 7.30078 49.7168 7.16406C49.7168 7.00781 49.7363 6.86133 49.7754 6.72461C49.834 6.58789 49.9219 6.50977 50.0391 6.49023L50.3027 6.75391C50.3027 6.77344 50.3027 6.83203 50.3027 6.92969C50.3027 7.02734 50.3027 7.13477 50.3027 7.25195C50.3223 7.36914 50.332 7.49609 50.332 7.63281C50.3516 7.75 50.3613 7.83789 50.3613 7.89648C50.3613 9.06836 50.2637 10.1914 50.0684 11.2656C49.873 12.3203 49.6094 13.4531 49.2773 14.6641C49.1602 14.8984 48.9941 15.2598 48.7793 15.748C48.5645 16.2363 48.3105 16.7246 48.0176 17.2129C47.7441 17.7012 47.4414 18.1309 47.1094 18.502C46.7773 18.873 46.4355 19.0586 46.084 19.0586C45.6152 19.0586 45.2246 18.8242 44.9121 18.3555C44.6191 17.8867 44.375 17.3008 44.1797 16.5977C43.9844 15.875 43.8379 15.1035 43.7402 14.2832C43.6621 13.4629 43.584 12.7012 43.5059 11.998C43.4277 11.2754 43.3496 10.6797 43.2715 10.2109C43.2129 9.74219 43.125 9.50781 43.0078 9.50781ZM58.1836 15.4258C57.8906 15.7773 57.5488 16.1484 57.1582 16.5391C56.7871 16.9297 56.377 17.291 55.9277 17.623C55.498 17.9551 55.0391 18.2383 54.5508 18.4727C54.082 18.6875 53.5938 18.7949 53.0859 18.7949C52.0508 18.7949 51.5332 18.2969 51.5332 17.3008C51.5332 16.8906 51.6992 16.3535 52.0312 15.6895C52.3828 15.0059 52.832 14.293 53.3789 13.5508C53.9258 12.8086 54.5312 12.0957 55.1953 11.4121C55.8594 10.709 56.5234 10.1328 57.1875 9.68359C57.8516 9.21484 58.457 8.92188 59.0039 8.80469C59.5703 8.6875 60.0293 8.85352 60.3809 9.30273C60.3809 9.83008 60.3418 10.3574 60.2637 10.8848C60.1855 11.4121 60.1074 11.9395 60.0293 12.4668C59.9512 12.9746 59.873 13.4824 59.7949 13.9902C59.7168 14.498 59.6777 15.0156 59.6777 15.543C59.6777 15.6602 59.6875 15.8457 59.707 16.0996C59.7461 16.334 59.7949 16.5781 59.8535 16.832C59.9316 17.0664 60.0293 17.2812 60.1465 17.4766C60.2637 17.6523 60.4199 17.7402 60.6152 17.7402C61.084 17.7402 61.4648 17.6816 61.7578 17.5645C62.0703 17.4473 62.334 17.3105 62.5488 17.1543C62.7832 16.9785 62.9785 16.7832 63.1348 16.5684C63.3105 16.3535 63.4863 16.1387 63.6621 15.9238C63.8574 15.709 64.0723 15.5039 64.3066 15.3086C64.541 15.1133 64.8438 14.957 65.2148 14.8398C65.2148 14.8398 65.2148 14.8691 65.2148 14.9277C65.2148 14.9863 65.2148 15.0352 65.2148 15.0742C65.2148 15.5625 65.0684 16.0508 64.7754 16.5391C64.4824 17.0078 64.1113 17.4277 63.6621 17.7988C63.2129 18.1699 62.7051 18.4727 62.1387 18.707C61.5918 18.9219 61.0547 19.0293 60.5273 19.0293C60.0781 19.0293 59.7168 18.9023 59.4434 18.6484C59.1699 18.3945 58.9453 18.0918 58.7695 17.7402C58.6133 17.3887 58.4961 17.0078 58.418 16.5977C58.3398 16.168 58.2617 15.7773 58.1836 15.4258ZM58.7109 11.5879C58.9062 10.9434 58.9746 10.5039 58.916 10.2695C58.877 10.0352 58.7402 9.94727 58.5059 10.0059C58.2715 10.0449 57.9688 10.2109 57.5977 10.5039C57.2266 10.7773 56.8262 11.1191 56.3965 11.5293C55.9668 11.9199 55.5371 12.3594 55.1074 12.8477C54.6777 13.3359 54.2773 13.8047 53.9062 14.2539C53.5352 14.6836 53.2324 15.0742 52.998 15.4258C52.7637 15.7773 52.6172 16.0312 52.5586 16.1875C52.4414 16.6367 52.4219 16.9785 52.5 17.2129C52.5977 17.4473 52.7344 17.6133 52.9102 17.7109C53.1055 17.7891 53.3105 17.7988 53.5254 17.7402C53.7598 17.6816 53.9551 17.5938 54.1113 17.4766C54.4434 17.1836 54.8633 16.793 55.3711 16.3047C55.8789 15.7969 56.3672 15.2598 56.8359 14.6934C57.3242 14.127 57.7441 13.5703 58.0957 13.0234C58.4473 12.457 58.6523 11.9785 58.7109 11.5879ZM65.5371 18.7656C65.3809 18.6094 65.293 18.4629 65.2734 18.3262C65.2539 18.1895 65.2441 18.0332 65.2441 17.8574C65.2441 17.7988 65.2441 17.7207 65.2441 17.623C65.2637 17.5254 65.2734 17.4766 65.2734 17.4766C65.4492 16.5195 65.6152 15.6211 65.7715 14.7812C65.9473 13.9414 66.0938 13.1211 66.2109 12.3203C66.3281 11.5 66.416 10.6699 66.4746 9.83008C66.5332 8.99023 66.5625 8.08203 66.5625 7.10547C66.5625 6.98828 66.5625 6.77344 66.5625 6.46094C66.5625 6.12891 66.5527 5.77734 66.5332 5.40625C66.5332 5.01562 66.5332 4.66406 66.5332 4.35156C66.5332 4.01953 66.5332 3.79492 66.5332 3.67773C66.5137 3.50195 66.4258 3.41406 66.2695 3.41406C66.1328 3.39453 66.0156 3.38477 65.918 3.38477C65.625 3.38477 65.3711 3.4043 65.1562 3.44336C64.9609 3.46289 64.7852 3.51172 64.6289 3.58984C64.4727 3.64844 64.3359 3.73633 64.2188 3.85352C64.082 3.9707 63.9355 4.10742 63.7793 4.26367C63.7207 4.26367 63.6328 4.27344 63.5156 4.29297C63.3789 4.29297 63.291 4.29297 63.252 4.29297C63.0957 4.29297 62.9297 4.2832 62.7539 4.26367C62.5586 4.22461 62.4609 4.09766 62.4609 3.88281C62.4609 3.86328 62.4707 3.84375 62.4902 3.82422C62.4902 3.78516 62.4902 3.76562 62.4902 3.76562C62.7832 3.39453 63.0664 3.08203 63.3398 2.82812C63.5938 2.57422 63.8672 2.37891 64.1602 2.24219C64.4531 2.10547 64.7852 2.00781 65.1562 1.94922C65.5273 1.89062 65.957 1.86133 66.4453 1.86133C66.7773 1.86133 67.0312 1.93945 67.207 2.0957C67.4023 2.25195 67.5391 2.45703 67.6172 2.71094C67.7148 2.94531 67.7734 3.21875 67.793 3.53125C67.8125 3.82422 67.8223 4.11719 67.8223 4.41016C67.8223 4.54688 67.8223 4.76172 67.8223 5.05469C67.8223 5.32812 67.8223 5.64062 67.8223 5.99219C67.8223 6.34375 67.8125 6.71484 67.793 7.10547C67.793 7.49609 67.7832 7.86719 67.7637 8.21875C67.7637 8.57031 67.7539 8.89258 67.7344 9.18555C67.7344 9.45898 67.7344 9.66406 67.7344 9.80078H68.0859C68.1445 9.72266 68.2715 9.58594 68.4668 9.39062C68.6621 9.19531 68.877 8.99023 69.1113 8.77539C69.3652 8.56055 69.6191 8.375 69.873 8.21875C70.1465 8.0625 70.4004 7.98438 70.6348 7.98438C70.9473 7.98438 71.2402 8.11133 71.5137 8.36523C71.8066 8.59961 72.0605 8.92188 72.2754 9.33203C72.5098 9.72266 72.7148 10.1621 72.8906 10.6504C73.0859 11.1387 73.2422 11.6172 73.3594 12.0859C73.4766 12.5547 73.5645 12.9844 73.623 13.375C73.7012 13.7656 73.7402 14.0781 73.7402 14.3125C73.7402 14.957 73.5645 15.5625 73.2129 16.1289C72.8613 16.6953 72.4121 17.1934 71.8652 17.623C71.3379 18.0527 70.7422 18.3945 70.0781 18.6484C69.4336 18.9023 68.8184 19.0293 68.2324 19.0293C67.9785 19.0293 67.7441 19.0195 67.5293 19C67.334 19 67.1289 19 66.9141 19C66.7188 18.9805 66.5039 18.9512 66.2695 18.9121C66.0547 18.873 65.8105 18.8242 65.5371 18.7656ZM70.3711 9.30273C69.7852 9.81055 69.2676 10.416 68.8184 11.1191C68.3691 11.8027 67.9883 12.5352 67.6758 13.3164C67.3633 14.0977 67.1289 14.8984 66.9727 15.7188C66.8359 16.5391 66.7676 17.3301 66.7676 18.0918C67.3145 18.0918 67.9199 18.0234 68.584 17.8867C69.248 17.75 69.8633 17.5352 70.4297 17.2422C71.0156 16.9297 71.5039 16.5293 71.8945 16.041C72.2852 15.5332 72.4805 14.9082 72.4805 14.166C72.4805 13.7754 72.4414 13.3457 72.3633 12.877C72.2852 12.3887 72.1582 11.9199 71.9824 11.4707C71.8262 11.002 71.6113 10.5723 71.3379 10.1816C71.084 9.79102 70.7617 9.49805 70.3711 9.30273ZM75 15.3379C74.8633 15.416 74.7559 15.4355 74.6777 15.3965C74.5996 15.3574 74.541 15.2988 74.502 15.2207C74.4824 15.1426 74.4629 15.0547 74.4434 14.957C74.4434 14.8398 74.4434 14.7617 74.4434 14.7227C74.4434 14.332 74.4922 14.0977 74.5898 14.0195C74.6875 13.9219 74.8145 13.8633 74.9707 13.8438C75.127 13.8047 75.293 13.7559 75.4688 13.6973C75.6445 13.6387 75.8105 13.4531 75.9668 13.1406C76.2012 12.6523 76.4062 12.1445 76.582 11.6172C76.7773 11.0703 77.0117 10.5625 77.2852 10.0938C77.5586 9.625 77.9004 9.24414 78.3105 8.95117C78.7402 8.6582 79.3262 8.51172 80.0684 8.51172C80.1855 8.51172 80.3125 8.52148 80.4492 8.54102C80.6055 8.56055 80.7422 8.59961 80.8594 8.6582C80.9961 8.69727 81.1035 8.77539 81.1816 8.89258C81.2793 8.99023 81.3281 9.12695 81.3281 9.30273C81.3281 9.71289 81.2207 10.084 81.0059 10.416C80.8105 10.7285 80.5566 11.0215 80.2441 11.2949C79.9512 11.5488 79.6289 11.793 79.2773 12.0273C78.9258 12.2617 78.6035 12.4863 78.3105 12.7012C78.0176 12.916 77.7637 13.1406 77.5488 13.375C77.3535 13.6094 77.2559 13.8633 77.2559 14.1367V16.9492C77.2559 17.1641 77.334 17.3398 77.4902 17.4766C77.666 17.5938 77.8613 17.6914 78.0762 17.7695C78.291 17.8477 78.5156 17.9062 78.75 17.9453C78.9844 17.9844 79.1602 18.0039 79.2773 18.0039C79.7461 18.0039 80.2148 17.9258 80.6836 17.7695C81.1523 17.5938 81.6016 17.3789 82.0312 17.125C82.4805 16.8711 82.9004 16.5977 83.291 16.3047C83.6816 15.9922 84.0527 15.6992 84.4043 15.4258C84.5215 15.3281 84.6191 15.2305 84.6973 15.1328C84.7949 15.0156 84.8828 14.9082 84.9609 14.8105C85.0586 14.7129 85.1562 14.6348 85.2539 14.5762C85.3711 14.498 85.5176 14.4395 85.6934 14.4004C85.6934 14.4199 85.6934 14.459 85.6934 14.5176C85.6934 14.5762 85.6934 14.625 85.6934 14.6641C85.6934 14.8203 85.6738 14.957 85.6348 15.0742C85.6152 15.1914 85.5469 15.3086 85.4297 15.4258C85 15.9141 84.541 16.373 84.0527 16.8027C83.5645 17.2324 83.0469 17.6133 82.5 17.9453C81.9531 18.2773 81.377 18.541 80.7715 18.7363C80.166 18.9316 79.5215 19.0293 78.8379 19.0293C78.1543 19.0293 77.627 18.9316 77.2559 18.7363C76.8848 18.541 76.5918 18.2578 76.377 17.8867C76.1816 17.5156 76.0449 17.0762 75.9668 16.5684C75.8887 16.0605 75.8008 15.5137 75.7031 14.9277L75 15.3379ZM78.7793 10.7969C78.7793 10.7578 78.7402 10.7676 78.6621 10.8262C78.6035 10.8652 78.5254 10.9238 78.4277 11.002C78.3496 11.0801 78.291 11.1582 78.252 11.2363C78.2129 11.2949 78.2129 11.3242 78.252 11.3242C78.3496 11.3438 78.4668 11.2852 78.6035 11.1484C78.7402 11.0117 78.7988 10.8945 78.7793 10.7969ZM87.0117 17.2129C86.6406 17.2129 86.3281 17.0957 86.0742 16.8613C85.8203 16.627 85.6055 16.3438 85.4297 16.0117C85.2734 15.6797 85.1465 15.3281 85.0488 14.957C84.9707 14.5859 84.9316 14.2637 84.9316 13.9902C84.9316 13.3848 85.0391 12.7598 85.2539 12.1152C85.4883 11.4512 85.791 10.8262 86.1621 10.2402C86.5527 9.6543 86.9922 9.12695 87.4805 8.6582C87.9883 8.16992 88.5156 7.78906 89.0625 7.51562C89.2969 7.39844 89.502 7.33984 89.6777 7.33984C89.873 7.32031 90.0391 7.31055 90.1758 7.31055C90.3125 7.29102 90.4102 7.23242 90.4688 7.13477C90.5469 7.01758 90.5859 6.80273 90.5859 6.49023V1.59766C90.5859 1.44141 90.6738 1.28516 90.8496 1.12891C91.0254 0.953125 91.1914 0.865234 91.3477 0.865234C91.4453 0.865234 91.5234 0.914062 91.582 1.01172C91.6602 1.08984 91.7188 1.1875 91.7578 1.30469C91.7969 1.42188 91.8262 1.54883 91.8457 1.68555C91.8652 1.82227 91.875 1.91992 91.875 1.97852C91.875 4.18555 91.8457 6.36328 91.7871 8.51172C91.7285 10.6406 91.6992 12.8379 91.6992 15.1035C91.8555 15.1035 92.0117 15.0742 92.168 15.0156C92.3242 14.957 92.4902 14.8887 92.666 14.8105C92.8418 14.7324 93.0078 14.6543 93.1641 14.5762C93.3398 14.498 93.5059 14.4395 93.6621 14.4004C93.6621 14.4199 93.6621 14.459 93.6621 14.5176C93.6816 14.5762 93.6914 14.625 93.6914 14.6641C93.6914 14.9375 93.5938 15.1621 93.3984 15.3379C93.2227 15.4941 93.0078 15.6406 92.7539 15.7773C92.5195 15.9141 92.2852 16.0508 92.0508 16.1875C91.8359 16.3242 91.6895 16.5 91.6113 16.7148C91.5918 16.7539 91.5723 16.8906 91.5527 17.125C91.5332 17.3594 91.4941 17.623 91.4355 17.916C91.377 18.209 91.2891 18.4727 91.1719 18.707C91.0547 18.9219 90.9082 19.0293 90.7324 19.0293C90.459 19.0293 90.2734 18.9512 90.1758 18.7949C90.0977 18.6387 90.0684 18.4531 90.0879 18.2383C90.1074 18.0234 90.1367 17.8184 90.1758 17.623C90.2344 17.4277 90.2637 17.291 90.2637 17.2129H87.0117ZM85.957 13.9902C85.957 14.6348 86.1621 15.1719 86.5723 15.6016C86.9824 16.0117 87.5098 16.2168 88.1543 16.2168C88.291 16.2168 88.4473 16.2168 88.623 16.2168C88.8184 16.2168 89.0137 16.207 89.209 16.1875C89.4043 16.1484 89.5801 16.0898 89.7363 16.0117C89.8926 15.9336 90.0098 15.8164 90.0879 15.6602C90.0488 15.1328 90.0391 14.6348 90.0586 14.166C90.0977 13.6777 90.1367 13.1992 90.1758 12.7305C90.2148 12.2422 90.2539 11.7637 90.293 11.2949C90.332 10.8066 90.3516 10.2988 90.3516 9.77148C90.3516 9.53711 90.3027 9.35156 90.2051 9.21484C90.127 9.07812 89.9609 9.00977 89.707 9.00977C89.1797 9.00977 88.6816 9.18555 88.2129 9.53711C87.7637 9.86914 87.3633 10.2988 87.0117 10.8262C86.6797 11.334 86.416 11.8809 86.2207 12.4668C86.0449 13.0332 85.957 13.541 85.957 13.9902Z"/></svg>